<svg xmlns="http://www.w3.org/2000/svg" viewBox="0 0 800 800" width="800" height="800"><defs>
  <radialGradient id="bg" cx="50%" cy="42%" r="70%"><stop offset="0" stop-color="#fbf7ef"/><stop offset="1" stop-color="#ecdfc8"/></radialGradient>
  <linearGradient id="shine" x1="0" x2="1"><stop offset="0" stop-color="#fff" stop-opacity=".22"/><stop offset=".5" stop-color="#fff" stop-opacity="0"/></linearGradient>
  <linearGradient id="bowl" x1="0" y1="0" x2="0" y2="1"><stop offset="0" stop-color="#2e5a3e"/><stop offset="1" stop-color="#1f3d2b"/></linearGradient>
  <linearGradient id="gold" x1="0" x2="1"><stop offset="0" stop-color="#cfb26a"/><stop offset=".5" stop-color="#e2cd92"/><stop offset="1" stop-color="#b8923a"/></linearGradient>
</defs>
  <rect width="800" height="800" fill="url(#bg)"/>
  <ellipse cx="400" cy="630" rx="250" ry="34" fill="#1f3d2b" opacity=".12"/>
  <path d="M150 480h500c0 110-110 170-250 170S150 590 150 480Z" fill="url(#bowl)"/>
  <path d="M150 480h500" stroke="url(#gold)" stroke-width="6" stroke-linecap="round"/>
  <g><g transform="translate(548.1 488.1) rotate(5) scale(1.06)"><path d="M0-34C16-22 20 6 12 22 6 32-6 32-12 22-20 6-16-22 0-34Z" fill="#a8683f"/><path d="M0-34C16-22 20 6 12 22 6 32-6 32-12 22-20 6-16-22 0-34Z" fill="url(#shine)"/><path d="M-4-18c2 10 2 24-1 34M5-14c1 9 1 18-1 28" stroke="#7d4a2a" stroke-width="1.6" fill="none" opacity=".55"/></g><g transform="translate(508.6 406.0) rotate(22) scale(1.04)"><path d="M0-34C16-22 20 6 12 22 6 32-6 32-12 22-20 6-16-22 0-34Z" fill="#a8683f"/><path d="M0-34C16-22 20 6 12 22 6 32-6 32-12 22-20 6-16-22 0-34Z" fill="url(#shine)"/><path d="M-4-18c2 10 2 24-1 34M5-14c1 9 1 18-1 28" stroke="#7d4a2a" stroke-width="1.6" fill="none" opacity=".55"/></g><g transform="translate(295.0 462.1) rotate(-71) scale(1.04)"><path d="M0-34C16-22 20 6 12 22 6 32-6 32-12 22-20 6-16-22 0-34Z" fill="#a8683f"/><path d="M0-34C16-22 20 6 12 22 6 32-6 32-12 22-20 6-16-22 0-34Z" fill="url(#shine)"/><path d="M-4-18c2 10 2 24-1 34M5-14c1 9 1 18-1 28" stroke="#7d4a2a" stroke-width="1.6" fill="none" opacity=".55"/></g><g transform="translate(386.2 351.9) rotate(2) scale(0.84)"><path d="M0-34C16-22 20 6 12 22 6 32-6 32-12 22-20 6-16-22 0-34Z" fill="#a8683f"/><path d="M0-34C16-22 20 6 12 22 6 32-6 32-12 22-20 6-16-22 0-34Z" fill="url(#shine)"/><path d="M-4-18c2 10 2 24-1 34M5-14c1 9 1 18-1 28" stroke="#7d4a2a" stroke-width="1.6" fill="none" opacity=".55"/></g><g transform="translate(471.5 411.4) rotate(65) scale(1.12)"><path d="M0-34C16-22 20 6 12 22 6 32-6 32-12 22-20 6-16-22 0-34Z" fill="#a8683f"/><path d="M0-34C16-22 20 6 12 22 6 32-6 32-12 22-20 6-16-22 0-34Z" fill="url(#shine)"/><path d="M-4-18c2 10 2 24-1 34M5-14c1 9 1 18-1 28" stroke="#7d4a2a" stroke-width="1.6" fill="none" opacity=".55"/></g><g transform="translate(328.4 382.4) rotate(-32) scale(0.85)"><path d="M0-34C16-22 20 6 12 22 6 32-6 32-12 22-20 6-16-22 0-34Z" fill="#a8683f"/><path d="M0-34C16-22 20 6 12 22 6 32-6 32-12 22-20 6-16-22 0-34Z" fill="url(#shine)"/><path d="M-4-18c2 10 2 24-1 34M5-14c1 9 1 18-1 28" stroke="#7d4a2a" stroke-width="1.6" fill="none" opacity=".55"/></g><g transform="translate(310.1 373.0) rotate(60) scale(1.06)"><path d="M0-34C16-22 20 6 12 22 6 32-6 32-12 22-20 6-16-22 0-34Z" fill="#a8683f"/><path d="M0-34C16-22 20 6 12 22 6 32-6 32-12 22-20 6-16-22 0-34Z" fill="url(#shine)"/><path d="M-4-18c2 10 2 24-1 34M5-14c1 9 1 18-1 28" stroke="#7d4a2a" stroke-width="1.6" fill="none" opacity=".55"/></g><g transform="translate(315.5 427.8) rotate(-49) scale(0.95)"><path d="M0-34C16-22 20 6 12 22 6 32-6 32-12 22-20 6-16-22 0-34Z" fill="#a8683f"/><path d="M0-34C16-22 20 6 12 22 6 32-6 32-12 22-20 6-16-22 0-34Z" fill="url(#shine)"/><path d="M-4-18c2 10 2 24-1 34M5-14c1 9 1 18-1 28" stroke="#7d4a2a" stroke-width="1.6" fill="none" opacity=".55"/></g><g transform="translate(229.4 483.5) rotate(68) scale(1.03)"><path d="M0-34C16-22 20 6 12 22 6 32-6 32-12 22-20 6-16-22 0-34Z" fill="#a8683f"/><path d="M0-34C16-22 20 6 12 22 6 32-6 32-12 22-20 6-16-22 0-34Z" fill="url(#shine)"/><path d="M-4-18c2 10 2 24-1 34M5-14c1 9 1 18-1 28" stroke="#7d4a2a" stroke-width="1.6" fill="none" opacity=".55"/></g><g transform="translate(252.9 470.3) rotate(-12) scale(0.93)"><path d="M0-34C16-22 20 6 12 22 6 32-6 32-12 22-20 6-16-22 0-34Z" fill="#a8683f"/><path d="M0-34C16-22 20 6 12 22 6 32-6 32-12 22-20 6-16-22 0-34Z" fill="url(#shine)"/><path d="M-4-18c2 10 2 24-1 34M5-14c1 9 1 18-1 28" stroke="#7d4a2a" stroke-width="1.6" fill="none" opacity=".55"/></g><g transform="translate(413.6 398.1) rotate(-7) scale(1.12)"><path d="M0-34C16-22 20 6 12 22 6 32-6 32-12 22-20 6-16-22 0-34Z" fill="#a8683f"/><path d="M0-34C16-22 20 6 12 22 6 32-6 32-12 22-20 6-16-22 0-34Z" fill="url(#shine)"/><path d="M-4-18c2 10 2 24-1 34M5-14c1 9 1 18-1 28" stroke="#7d4a2a" stroke-width="1.6" fill="none" opacity=".55"/></g><g transform="translate(453.5 407.3) rotate(30) scale(0.98)"><path d="M0-34C16-22 20 6 12 22 6 32-6 32-12 22-20 6-16-22 0-34Z" fill="#a8683f"/><path d="M0-34C16-22 20 6 12 22 6 32-6 32-12 22-20 6-16-22 0-34Z" fill="url(#shine)"/><path d="M-4-18c2 10 2 24-1 34M5-14c1 9 1 18-1 28" stroke="#7d4a2a" stroke-width="1.6" fill="none" opacity=".55"/></g><g transform="translate(361.4 391.6) rotate(-24) scale(1.01)"><path d="M0-34C16-22 20 6 12 22 6 32-6 32-12 22-20 6-16-22 0-34Z" fill="#a8683f"/><path d="M0-34C16-22 20 6 12 22 6 32-6 32-12 22-20 6-16-22 0-34Z" fill="url(#shine)"/><path d="M-4-18c2 10 2 24-1 34M5-14c1 9 1 18-1 28" stroke="#7d4a2a" stroke-width="1.6" fill="none" opacity=".55"/></g><g transform="translate(353.2 381.1) rotate(51) scale(0.84)"><path d="M0-34C16-22 20 6 12 22 6 32-6 32-12 22-20 6-16-22 0-34Z" fill="#a8683f"/><path d="M0-34C16-22 20 6 12 22 6 32-6 32-12 22-20 6-16-22 0-34Z" fill="url(#shine)"/><path d="M-4-18c2 10 2 24-1 34M5-14c1 9 1 18-1 28" stroke="#7d4a2a" stroke-width="1.6" fill="none" opacity=".55"/></g><g transform="translate(364.6 473.8) rotate(-45) scale(1.15)"><path d="M0-34C16-22 20 6 12 22 6 32-6 32-12 22-20 6-16-22 0-34Z" fill="#a8683f"/><path d="M0-34C16-22 20 6 12 22 6 32-6 32-12 22-20 6-16-22 0-34Z" fill="url(#shine)"/><path d="M-4-18c2 10 2 24-1 34M5-14c1 9 1 18-1 28" stroke="#7d4a2a" stroke-width="1.6" fill="none" opacity=".55"/></g><g transform="translate(245.5 464.9) rotate(67) scale(0.85)"><path d="M0-34C16-22 20 6 12 22 6 32-6 32-12 22-20 6-16-22 0-34Z" fill="#a8683f"/><path d="M0-34C16-22 20 6 12 22 6 32-6 32-12 22-20 6-16-22 0-34Z" fill="url(#shine)"/><path d="M-4-18c2 10 2 24-1 34M5-14c1 9 1 18-1 28" stroke="#7d4a2a" stroke-width="1.6" fill="none" opacity=".55"/></g><g transform="translate(552.5 400.0) rotate(-36) scale(1.07)"><path d="M0-34C16-22 20 6 12 22 6 32-6 32-12 22-20 6-16-22 0-34Z" fill="#a8683f"/><path d="M0-34C16-22 20 6 12 22 6 32-6 32-12 22-20 6-16-22 0-34Z" fill="url(#shine)"/><path d="M-4-18c2 10 2 24-1 34M5-14c1 9 1 18-1 28" stroke="#7d4a2a" stroke-width="1.6" fill="none" opacity=".55"/></g><g transform="translate(310.4 502.1) rotate(-43) scale(1.02)"><path d="M0-34C16-22 20 6 12 22 6 32-6 32-12 22-20 6-16-22 0-34Z" fill="#a8683f"/><path d="M0-34C16-22 20 6 12 22 6 32-6 32-12 22-20 6-16-22 0-34Z" fill="url(#shine)"/><path d="M-4-18c2 10 2 24-1 34M5-14c1 9 1 18-1 28" stroke="#7d4a2a" stroke-width="1.6" fill="none" opacity=".55"/></g><g transform="translate(395.5 384.2) rotate(-42) scale(1.11)"><path d="M0-34C16-22 20 6 12 22 6 32-6 32-12 22-20 6-16-22 0-34Z" fill="#a8683f"/><path d="M0-34C16-22 20 6 12 22 6 32-6 32-12 22-20 6-16-22 0-34Z" fill="url(#shine)"/><path d="M-4-18c2 10 2 24-1 34M5-14c1 9 1 18-1 28" stroke="#7d4a2a" stroke-width="1.6" fill="none" opacity=".55"/></g><g transform="translate(571.5 520.9) rotate(66) scale(0.80)"><path d="M0-34C16-22 20 6 12 22 6 32-6 32-12 22-20 6-16-22 0-34Z" fill="#a8683f"/><path d="M0-34C16-22 20 6 12 22 6 32-6 32-12 22-20 6-16-22 0-34Z" fill="url(#shine)"/><path d="M-4-18c2 10 2 24-1 34M5-14c1 9 1 18-1 28" stroke="#7d4a2a" stroke-width="1.6" fill="none" opacity=".55"/></g><g transform="translate(583.2 539.1) rotate(75) scale(0.87)"><path d="M0-34C16-22 20 6 12 22 6 32-6 32-12 22-20 6-16-22 0-34Z" fill="#a8683f"/><path d="M0-34C16-22 20 6 12 22 6 32-6 32-12 22-20 6-16-22 0-34Z" fill="url(#shine)"/><path d="M-4-18c2 10 2 24-1 34M5-14c1 9 1 18-1 28" stroke="#7d4a2a" stroke-width="1.6" fill="none" opacity=".55"/></g><g transform="translate(478.7 470.2) rotate(10) scale(0.87)"><path d="M0-34C16-22 20 6 12 22 6 32-6 32-12 22-20 6-16-22 0-34Z" fill="#a8683f"/><path d="M0-34C16-22 20 6 12 22 6 32-6 32-12 22-20 6-16-22 0-34Z" fill="url(#shine)"/><path d="M-4-18c2 10 2 24-1 34M5-14c1 9 1 18-1 28" stroke="#7d4a2a" stroke-width="1.6" fill="none" opacity=".55"/></g><g transform="translate(500.0 411.6) rotate(-75) scale(0.97)"><path d="M0-34C16-22 20 6 12 22 6 32-6 32-12 22-20 6-16-22 0-34Z" fill="#a8683f"/><path d="M0-34C16-22 20 6 12 22 6 32-6 32-12 22-20 6-16-22 0-34Z" fill="url(#shine)"/><path d="M-4-18c2 10 2 24-1 34M5-14c1 9 1 18-1 28" stroke="#7d4a2a" stroke-width="1.6" fill="none" opacity=".55"/></g><g transform="translate(563.0 516.4) rotate(-74) scale(1.11)"><path d="M0-34C16-22 20 6 12 22 6 32-6 32-12 22-20 6-16-22 0-34Z" fill="#a8683f"/><path d="M0-34C16-22 20 6 12 22 6 32-6 32-12 22-20 6-16-22 0-34Z" fill="url(#shine)"/><path d="M-4-18c2 10 2 24-1 34M5-14c1 9 1 18-1 28" stroke="#7d4a2a" stroke-width="1.6" fill="none" opacity=".55"/></g><g transform="translate(541.2 380.4) rotate(-13) scale(1.07)"><path d="M0-34C16-22 20 6 12 22 6 32-6 32-12 22-20 6-16-22 0-34Z" fill="#a8683f"/><path d="M0-34C16-22 20 6 12 22 6 32-6 32-12 22-20 6-16-22 0-34Z" fill="url(#shine)"/><path d="M-4-18c2 10 2 24-1 34M5-14c1 9 1 18-1 28" stroke="#7d4a2a" stroke-width="1.6" fill="none" opacity=".55"/></g><g transform="translate(495.5 383.0) rotate(-15) scale(0.88)"><path d="M0-34C16-22 20 6 12 22 6 32-6 32-12 22-20 6-16-22 0-34Z" fill="#a8683f"/><path d="M0-34C16-22 20 6 12 22 6 32-6 32-12 22-20 6-16-22 0-34Z" fill="url(#shine)"/><path d="M-4-18c2 10 2 24-1 34M5-14c1 9 1 18-1 28" stroke="#7d4a2a" stroke-width="1.6" fill="none" opacity=".55"/></g><g transform="translate(422.9 440.3) rotate(-26) scale(1.06)"><path d="M0-34C16-22 20 6 12 22 6 32-6 32-12 22-20 6-16-22 0-34Z" fill="#a8683f"/><path d="M0-34C16-22 20 6 12 22 6 32-6 32-12 22-20 6-16-22 0-34Z" fill="url(#shine)"/><path d="M-4-18c2 10 2 24-1 34M5-14c1 9 1 18-1 28" stroke="#7d4a2a" stroke-width="1.6" fill="none" opacity=".55"/></g><g transform="translate(367.3 466.2) rotate(79) scale(1.14)"><path d="M0-34C16-22 20 6 12 22 6 32-6 32-12 22-20 6-16-22 0-34Z" fill="#a8683f"/><path d="M0-34C16-22 20 6 12 22 6 32-6 32-12 22-20 6-16-22 0-34Z" fill="url(#shine)"/><path d="M-4-18c2 10 2 24-1 34M5-14c1 9 1 18-1 28" stroke="#7d4a2a" stroke-width="1.6" fill="none" opacity=".55"/></g><g transform="translate(561.7 397.9) rotate(-58) scale(1.03)"><path d="M0-34C16-22 20 6 12 22 6 32-6 32-12 22-20 6-16-22 0-34Z" fill="#a8683f"/><path d="M0-34C16-22 20 6 12 22 6 32-6 32-12 22-20 6-16-22 0-34Z" fill="url(#shine)"/><path d="M-4-18c2 10 2 24-1 34M5-14c1 9 1 18-1 28" stroke="#7d4a2a" stroke-width="1.6" fill="none" opacity=".55"/></g><g transform="translate(425.2 378.0) rotate(-50) scale(0.97)"><path d="M0-34C16-22 20 6 12 22 6 32-6 32-12 22-20 6-16-22 0-34Z" fill="#a8683f"/><path d="M0-34C16-22 20 6 12 22 6 32-6 32-12 22-20 6-16-22 0-34Z" fill="url(#shine)"/><path d="M-4-18c2 10 2 24-1 34M5-14c1 9 1 18-1 28" stroke="#7d4a2a" stroke-width="1.6" fill="none" opacity=".55"/></g><g transform="translate(253.4 431.6) rotate(1) scale(1.00)"><path d="M0-34C16-22 20 6 12 22 6 32-6 32-12 22-20 6-16-22 0-34Z" fill="#a8683f"/><path d="M0-34C16-22 20 6 12 22 6 32-6 32-12 22-20 6-16-22 0-34Z" fill="url(#shine)"/><path d="M-4-18c2 10 2 24-1 34M5-14c1 9 1 18-1 28" stroke="#7d4a2a" stroke-width="1.6" fill="none" opacity=".55"/></g><g transform="translate(342.4 391.0) rotate(7) scale(0.90)"><path d="M0-34C16-22 20 6 12 22 6 32-6 32-12 22-20 6-16-22 0-34Z" fill="#a8683f"/><path d="M0-34C16-22 20 6 12 22 6 32-6 32-12 22-20 6-16-22 0-34Z" fill="url(#shine)"/><path d="M-4-18c2 10 2 24-1 34M5-14c1 9 1 18-1 28" stroke="#7d4a2a" stroke-width="1.6" fill="none" opacity=".55"/></g><g transform="translate(491.6 470.5) rotate(-11) scale(1.03)"><path d="M0-34C16-22 20 6 12 22 6 32-6 32-12 22-20 6-16-22 0-34Z" fill="#a8683f"/><path d="M0-34C16-22 20 6 12 22 6 32-6 32-12 22-20 6-16-22 0-34Z" fill="url(#shine)"/><path d="M-4-18c2 10 2 24-1 34M5-14c1 9 1 18-1 28" stroke="#7d4a2a" stroke-width="1.6" fill="none" opacity=".55"/></g><g transform="translate(503.3 394.3) rotate(29) scale(1.12)"><path d="M0-34C16-22 20 6 12 22 6 32-6 32-12 22-20 6-16-22 0-34Z" fill="#a8683f"/><path d="M0-34C16-22 20 6 12 22 6 32-6 32-12 22-20 6-16-22 0-34Z" fill="url(#shine)"/><path d="M-4-18c2 10 2 24-1 34M5-14c1 9 1 18-1 28" stroke="#7d4a2a" stroke-width="1.6" fill="none" opacity=".55"/></g><g transform="translate(225.6 425.2) rotate(64) scale(1.05)"><path d="M0-34C16-22 20 6 12 22 6 32-6 32-12 22-20 6-16-22 0-34Z" fill="#a8683f"/><path d="M0-34C16-22 20 6 12 22 6 32-6 32-12 22-20 6-16-22 0-34Z" fill="url(#shine)"/><path d="M-4-18c2 10 2 24-1 34M5-14c1 9 1 18-1 28" stroke="#7d4a2a" stroke-width="1.6" fill="none" opacity=".55"/></g><g transform="translate(266.8 514.8) rotate(-78) scale(0.83)"><path d="M0-34C16-22 20 6 12 22 6 32-6 32-12 22-20 6-16-22 0-34Z" fill="#a8683f"/><path d="M0-34C16-22 20 6 12 22 6 32-6 32-12 22-20 6-16-22 0-34Z" fill="url(#shine)"/><path d="M-4-18c2 10 2 24-1 34M5-14c1 9 1 18-1 28" stroke="#7d4a2a" stroke-width="1.6" fill="none" opacity=".55"/></g><g transform="translate(594.6 516.9) rotate(28) scale(0.87)"><path d="M0-34C16-22 20 6 12 22 6 32-6 32-12 22-20 6-16-22 0-34Z" fill="#a8683f"/><path d="M0-34C16-22 20 6 12 22 6 32-6 32-12 22-20 6-16-22 0-34Z" fill="url(#shine)"/><path d="M-4-18c2 10 2 24-1 34M5-14c1 9 1 18-1 28" stroke="#7d4a2a" stroke-width="1.6" fill="none" opacity=".55"/></g><g transform="translate(381.7 342.5) rotate(44) scale(1.04)"><path d="M0-34C16-22 20 6 12 22 6 32-6 32-12 22-20 6-16-22 0-34Z" fill="#a8683f"/><path d="M0-34C16-22 20 6 12 22 6 32-6 32-12 22-20 6-16-22 0-34Z" fill="url(#shine)"/><path d="M-4-18c2 10 2 24-1 34M5-14c1 9 1 18-1 28" stroke="#7d4a2a" stroke-width="1.6" fill="none" opacity=".55"/></g><g transform="translate(363.5 488.0) rotate(76) scale(1.08)"><path d="M0-34C16-22 20 6 12 22 6 32-6 32-12 22-20 6-16-22 0-34Z" fill="#a8683f"/><path d="M0-34C16-22 20 6 12 22 6 32-6 32-12 22-20 6-16-22 0-34Z" fill="url(#shine)"/><path d="M-4-18c2 10 2 24-1 34M5-14c1 9 1 18-1 28" stroke="#7d4a2a" stroke-width="1.6" fill="none" opacity=".55"/></g><g transform="translate(570.2 461.9) rotate(16) scale(0.87)"><path d="M0-34C16-22 20 6 12 22 6 32-6 32-12 22-20 6-16-22 0-34Z" fill="#a8683f"/><path d="M0-34C16-22 20 6 12 22 6 32-6 32-12 22-20 6-16-22 0-34Z" fill="url(#shine)"/><path d="M-4-18c2 10 2 24-1 34M5-14c1 9 1 18-1 28" stroke="#7d4a2a" stroke-width="1.6" fill="none" opacity=".55"/></g><g transform="translate(229.5 497.4) rotate(-3) scale(0.99)"><path d="M0-34C16-22 20 6 12 22 6 32-6 32-12 22-20 6-16-22 0-34Z" fill="#a8683f"/><path d="M0-34C16-22 20 6 12 22 6 32-6 32-12 22-20 6-16-22 0-34Z" fill="url(#shine)"/><path d="M-4-18c2 10 2 24-1 34M5-14c1 9 1 18-1 28" stroke="#7d4a2a" stroke-width="1.6" fill="none" opacity=".55"/></g><g transform="translate(249.5 470.2) rotate(-79) scale(0.80)"><path d="M0-34C16-22 20 6 12 22 6 32-6 32-12 22-20 6-16-22 0-34Z" fill="#a8683f"/><path d="M0-34C16-22 20 6 12 22 6 32-6 32-12 22-20 6-16-22 0-34Z" fill="url(#shine)"/><path d="M-4-18c2 10 2 24-1 34M5-14c1 9 1 18-1 28" stroke="#7d4a2a" stroke-width="1.6" fill="none" opacity=".55"/></g><g transform="translate(221.2 505.7) rotate(42) scale(1.07)"><path d="M0-34C16-22 20 6 12 22 6 32-6 32-12 22-20 6-16-22 0-34Z" fill="#a8683f"/><path d="M0-34C16-22 20 6 12 22 6 32-6 32-12 22-20 6-16-22 0-34Z" fill="url(#shine)"/><path d="M-4-18c2 10 2 24-1 34M5-14c1 9 1 18-1 28" stroke="#7d4a2a" stroke-width="1.6" fill="none" opacity=".55"/></g><g transform="translate(555.7 389.4) rotate(12) scale(1.03)"><path d="M0-34C16-22 20 6 12 22 6 32-6 32-12 22-20 6-16-22 0-34Z" fill="#a8683f"/><path d="M0-34C16-22 20 6 12 22 6 32-6 32-12 22-20 6-16-22 0-34Z" fill="url(#shine)"/><path d="M-4-18c2 10 2 24-1 34M5-14c1 9 1 18-1 28" stroke="#7d4a2a" stroke-width="1.6" fill="none" opacity=".55"/></g><g transform="translate(359.8 423.8) rotate(35) scale(1.00)"><path d="M0-34C16-22 20 6 12 22 6 32-6 32-12 22-20 6-16-22 0-34Z" fill="#a8683f"/><path d="M0-34C16-22 20 6 12 22 6 32-6 32-12 22-20 6-16-22 0-34Z" fill="url(#shine)"/><path d="M-4-18c2 10 2 24-1 34M5-14c1 9 1 18-1 28" stroke="#7d4a2a" stroke-width="1.6" fill="none" opacity=".55"/></g><g transform="translate(457.3 394.2) rotate(78) scale(1.10)"><path d="M0-34C16-22 20 6 12 22 6 32-6 32-12 22-20 6-16-22 0-34Z" fill="#a8683f"/><path d="M0-34C16-22 20 6 12 22 6 32-6 32-12 22-20 6-16-22 0-34Z" fill="url(#shine)"/><path d="M-4-18c2 10 2 24-1 34M5-14c1 9 1 18-1 28" stroke="#7d4a2a" stroke-width="1.6" fill="none" opacity=".55"/></g><g transform="translate(394.3 344.2) rotate(-67) scale(0.93)"><path d="M0-34C16-22 20 6 12 22 6 32-6 32-12 22-20 6-16-22 0-34Z" fill="#a8683f"/><path d="M0-34C16-22 20 6 12 22 6 32-6 32-12 22-20 6-16-22 0-34Z" fill="url(#shine)"/><path d="M-4-18c2 10 2 24-1 34M5-14c1 9 1 18-1 28" stroke="#7d4a2a" stroke-width="1.6" fill="none" opacity=".55"/></g><g transform="translate(565.3 430.5) rotate(46) scale(1.13)"><path d="M0-34C16-22 20 6 12 22 6 32-6 32-12 22-20 6-16-22 0-34Z" fill="#a8683f"/><path d="M0-34C16-22 20 6 12 22 6 32-6 32-12 22-20 6-16-22 0-34Z" fill="url(#shine)"/><path d="M-4-18c2 10 2 24-1 34M5-14c1 9 1 18-1 28" stroke="#7d4a2a" stroke-width="1.6" fill="none" opacity=".55"/></g><g transform="translate(292.1 399.3) rotate(48) scale(1.12)"><path d="M0-34C16-22 20 6 12 22 6 32-6 32-12 22-20 6-16-22 0-34Z" fill="#a8683f"/><path d="M0-34C16-22 20 6 12 22 6 32-6 32-12 22-20 6-16-22 0-34Z" fill="url(#shine)"/><path d="M-4-18c2 10 2 24-1 34M5-14c1 9 1 18-1 28" stroke="#7d4a2a" stroke-width="1.6" fill="none" opacity=".55"/></g><g transform="translate(491.8 433.8) rotate(10) scale(1.11)"><path d="M0-34C16-22 20 6 12 22 6 32-6 32-12 22-20 6-16-22 0-34Z" fill="#a8683f"/><path d="M0-34C16-22 20 6 12 22 6 32-6 32-12 22-20 6-16-22 0-34Z" fill="url(#shine)"/><path d="M-4-18c2 10 2 24-1 34M5-14c1 9 1 18-1 28" stroke="#7d4a2a" stroke-width="1.6" fill="none" opacity=".55"/></g><g transform="translate(309.8 410.7) rotate(-50) scale(0.94)"><path d="M0-34C16-22 20 6 12 22 6 32-6 32-12 22-20 6-16-22 0-34Z" fill="#a8683f"/><path d="M0-34C16-22 20 6 12 22 6 32-6 32-12 22-20 6-16-22 0-34Z" fill="url(#shine)"/><path d="M-4-18c2 10 2 24-1 34M5-14c1 9 1 18-1 28" stroke="#7d4a2a" stroke-width="1.6" fill="none" opacity=".55"/></g><g transform="translate(282.5 387.2) rotate(29) scale(0.92)"><path d="M0-34C16-22 20 6 12 22 6 32-6 32-12 22-20 6-16-22 0-34Z" fill="#a8683f"/><path d="M0-34C16-22 20 6 12 22 6 32-6 32-12 22-20 6-16-22 0-34Z" fill="url(#shine)"/><path d="M-4-18c2 10 2 24-1 34M5-14c1 9 1 18-1 28" stroke="#7d4a2a" stroke-width="1.6" fill="none" opacity=".55"/></g><g transform="translate(249.3 486.1) rotate(-59) scale(0.80)"><path d="M0-34C16-22 20 6 12 22 6 32-6 32-12 22-20 6-16-22 0-34Z" fill="#a8683f"/><path d="M0-34C16-22 20 6 12 22 6 32-6 32-12 22-20 6-16-22 0-34Z" fill="url(#shine)"/><path d="M-4-18c2 10 2 24-1 34M5-14c1 9 1 18-1 28" stroke="#7d4a2a" stroke-width="1.6" fill="none" opacity=".55"/></g><g transform="translate(191.1 446.2) rotate(-46) scale(0.86)"><path d="M0-34C16-22 20 6 12 22 6 32-6 32-12 22-20 6-16-22 0-34Z" fill="#a8683f"/><path d="M0-34C16-22 20 6 12 22 6 32-6 32-12 22-20 6-16-22 0-34Z" fill="url(#shine)"/><path d="M-4-18c2 10 2 24-1 34M5-14c1 9 1 18-1 28" stroke="#7d4a2a" stroke-width="1.6" fill="none" opacity=".55"/></g><g transform="translate(474.2 482.5) rotate(-77) scale(1.02)"><path d="M0-34C16-22 20 6 12 22 6 32-6 32-12 22-20 6-16-22 0-34Z" fill="#a8683f"/><path d="M0-34C16-22 20 6 12 22 6 32-6 32-12 22-20 6-16-22 0-34Z" fill="url(#shine)"/><path d="M-4-18c2 10 2 24-1 34M5-14c1 9 1 18-1 28" stroke="#7d4a2a" stroke-width="1.6" fill="none" opacity=".55"/></g><g transform="translate(437.4 384.8) rotate(34) scale(0.92)"><path d="M0-34C16-22 20 6 12 22 6 32-6 32-12 22-20 6-16-22 0-34Z" fill="#a8683f"/><path d="M0-34C16-22 20 6 12 22 6 32-6 32-12 22-20 6-16-22 0-34Z" fill="url(#shine)"/><path d="M-4-18c2 10 2 24-1 34M5-14c1 9 1 18-1 28" stroke="#7d4a2a" stroke-width="1.6" fill="none" opacity=".55"/></g><g transform="translate(417.6 403.2) rotate(37) scale(1.05)"><path d="M0-34C16-22 20 6 12 22 6 32-6 32-12 22-20 6-16-22 0-34Z" fill="#a8683f"/><path d="M0-34C16-22 20 6 12 22 6 32-6 32-12 22-20 6-16-22 0-34Z" fill="url(#shine)"/><path d="M-4-18c2 10 2 24-1 34M5-14c1 9 1 18-1 28" stroke="#7d4a2a" stroke-width="1.6" fill="none" opacity=".55"/></g><g transform="translate(225.3 532.8) rotate(13) scale(0.88)"><path d="M0-34C16-22 20 6 12 22 6 32-6 32-12 22-20 6-16-22 0-34Z" fill="#a8683f"/><path d="M0-34C16-22 20 6 12 22 6 32-6 32-12 22-20 6-16-22 0-34Z" fill="url(#shine)"/><path d="M-4-18c2 10 2 24-1 34M5-14c1 9 1 18-1 28" stroke="#7d4a2a" stroke-width="1.6" fill="none" opacity=".55"/></g><g transform="translate(283.7 428.7) rotate(-42) scale(1.08)"><path d="M0-34C16-22 20 6 12 22 6 32-6 32-12 22-20 6-16-22 0-34Z" fill="#a8683f"/><path d="M0-34C16-22 20 6 12 22 6 32-6 32-12 22-20 6-16-22 0-34Z" fill="url(#shine)"/><path d="M-4-18c2 10 2 24-1 34M5-14c1 9 1 18-1 28" stroke="#7d4a2a" stroke-width="1.6" fill="none" opacity=".55"/></g><g transform="translate(228.1 435.1) rotate(26) scale(1.08)"><path d="M0-34C16-22 20 6 12 22 6 32-6 32-12 22-20 6-16-22 0-34Z" fill="#a8683f"/><path d="M0-34C16-22 20 6 12 22 6 32-6 32-12 22-20 6-16-22 0-34Z" fill="url(#shine)"/><path d="M-4-18c2 10 2 24-1 34M5-14c1 9 1 18-1 28" stroke="#7d4a2a" stroke-width="1.6" fill="none" opacity=".55"/></g><g transform="translate(238.1 397.8) rotate(-12) scale(1.09)"><path d="M0-34C16-22 20 6 12 22 6 32-6 32-12 22-20 6-16-22 0-34Z" fill="#a8683f"/><path d="M0-34C16-22 20 6 12 22 6 32-6 32-12 22-20 6-16-22 0-34Z" fill="url(#shine)"/><path d="M-4-18c2 10 2 24-1 34M5-14c1 9 1 18-1 28" stroke="#7d4a2a" stroke-width="1.6" fill="none" opacity=".55"/></g><g transform="translate(514.9 412.2) rotate(-50) scale(1.10)"><path d="M0-34C16-22 20 6 12 22 6 32-6 32-12 22-20 6-16-22 0-34Z" fill="#a8683f"/><path d="M0-34C16-22 20 6 12 22 6 32-6 32-12 22-20 6-16-22 0-34Z" fill="url(#shine)"/><path d="M-4-18c2 10 2 24-1 34M5-14c1 9 1 18-1 28" stroke="#7d4a2a" stroke-width="1.6" fill="none" opacity=".55"/></g><g transform="translate(253.4 512.2) rotate(-71) scale(1.13)"><path d="M0-34C16-22 20 6 12 22 6 32-6 32-12 22-20 6-16-22 0-34Z" fill="#a8683f"/><path d="M0-34C16-22 20 6 12 22 6 32-6 32-12 22-20 6-16-22 0-34Z" fill="url(#shine)"/><path d="M-4-18c2 10 2 24-1 34M5-14c1 9 1 18-1 28" stroke="#7d4a2a" stroke-width="1.6" fill="none" opacity=".55"/></g><g transform="translate(309.8 372.6) rotate(-36) scale(1.13)"><path d="M0-34C16-22 20 6 12 22 6 32-6 32-12 22-20 6-16-22 0-34Z" fill="#a8683f"/><path d="M0-34C16-22 20 6 12 22 6 32-6 32-12 22-20 6-16-22 0-34Z" fill="url(#shine)"/><path d="M-4-18c2 10 2 24-1 34M5-14c1 9 1 18-1 28" stroke="#7d4a2a" stroke-width="1.6" fill="none" opacity=".55"/></g><g transform="translate(207.1 474.7) rotate(-28) scale(0.85)"><path d="M0-34C16-22 20 6 12 22 6 32-6 32-12 22-20 6-16-22 0-34Z" fill="#a8683f"/><path d="M0-34C16-22 20 6 12 22 6 32-6 32-12 22-20 6-16-22 0-34Z" fill="url(#shine)"/><path d="M-4-18c2 10 2 24-1 34M5-14c1 9 1 18-1 28" stroke="#7d4a2a" stroke-width="1.6" fill="none" opacity=".55"/></g><g transform="translate(279.8 514.6) rotate(21) scale(0.83)"><path d="M0-34C16-22 20 6 12 22 6 32-6 32-12 22-20 6-16-22 0-34Z" fill="#a8683f"/><path d="M0-34C16-22 20 6 12 22 6 32-6 32-12 22-20 6-16-22 0-34Z" fill="url(#shine)"/><path d="M-4-18c2 10 2 24-1 34M5-14c1 9 1 18-1 28" stroke="#7d4a2a" stroke-width="1.6" fill="none" opacity=".55"/></g><g transform="translate(535.5 418.4) rotate(-18) scale(1.05)"><path d="M0-34C16-22 20 6 12 22 6 32-6 32-12 22-20 6-16-22 0-34Z" fill="#a8683f"/><path d="M0-34C16-22 20 6 12 22 6 32-6 32-12 22-20 6-16-22 0-34Z" fill="url(#shine)"/><path d="M-4-18c2 10 2 24-1 34M5-14c1 9 1 18-1 28" stroke="#7d4a2a" stroke-width="1.6" fill="none" opacity=".55"/></g><g transform="translate(602.8 432.6) rotate(17) scale(1.05)"><path d="M0-34C16-22 20 6 12 22 6 32-6 32-12 22-20 6-16-22 0-34Z" fill="#a8683f"/><path d="M0-34C16-22 20 6 12 22 6 32-6 32-12 22-20 6-16-22 0-34Z" fill="url(#shine)"/><path d="M-4-18c2 10 2 24-1 34M5-14c1 9 1 18-1 28" stroke="#7d4a2a" stroke-width="1.6" fill="none" opacity=".55"/></g><g transform="translate(265.2 517.5) rotate(-11) scale(1.03)"><path d="M0-34C16-22 20 6 12 22 6 32-6 32-12 22-20 6-16-22 0-34Z" fill="#a8683f"/><path d="M0-34C16-22 20 6 12 22 6 32-6 32-12 22-20 6-16-22 0-34Z" fill="url(#shine)"/><path d="M-4-18c2 10 2 24-1 34M5-14c1 9 1 18-1 28" stroke="#7d4a2a" stroke-width="1.6" fill="none" opacity=".55"/></g><g transform="translate(350.3 427.1) rotate(-67) scale(0.82)"><path d="M0-34C16-22 20 6 12 22 6 32-6 32-12 22-20 6-16-22 0-34Z" fill="#a8683f"/><path d="M0-34C16-22 20 6 12 22 6 32-6 32-12 22-20 6-16-22 0-34Z" fill="url(#shine)"/><path d="M-4-18c2 10 2 24-1 34M5-14c1 9 1 18-1 28" stroke="#7d4a2a" stroke-width="1.6" fill="none" opacity=".55"/></g><g transform="translate(332.7 476.6) rotate(-72) scale(0.84)"><path d="M0-34C16-22 20 6 12 22 6 32-6 32-12 22-20 6-16-22 0-34Z" fill="#a8683f"/><path d="M0-34C16-22 20 6 12 22 6 32-6 32-12 22-20 6-16-22 0-34Z" fill="url(#shine)"/><path d="M-4-18c2 10 2 24-1 34M5-14c1 9 1 18-1 28" stroke="#7d4a2a" stroke-width="1.6" fill="none" opacity=".55"/></g><g transform="translate(518.4 391.9) rotate(-29) scale(1.07)"><path d="M0-34C16-22 20 6 12 22 6 32-6 32-12 22-20 6-16-22 0-34Z" fill="#a8683f"/><path d="M0-34C16-22 20 6 12 22 6 32-6 32-12 22-20 6-16-22 0-34Z" fill="url(#shine)"/><path d="M-4-18c2 10 2 24-1 34M5-14c1 9 1 18-1 28" stroke="#7d4a2a" stroke-width="1.6" fill="none" opacity=".55"/></g><g transform="translate(578.4 421.2) rotate(-47) scale(1.15)"><path d="M0-34C16-22 20 6 12 22 6 32-6 32-12 22-20 6-16-22 0-34Z" fill="#a8683f"/><path d="M0-34C16-22 20 6 12 22 6 32-6 32-12 22-20 6-16-22 0-34Z" fill="url(#shine)"/><path d="M-4-18c2 10 2 24-1 34M5-14c1 9 1 18-1 28" stroke="#7d4a2a" stroke-width="1.6" fill="none" opacity=".55"/></g><g transform="translate(368.6 490.7) rotate(41) scale(1.06)"><path d="M0-34C16-22 20 6 12 22 6 32-6 32-12 22-20 6-16-22 0-34Z" fill="#a8683f"/><path d="M0-34C16-22 20 6 12 22 6 32-6 32-12 22-20 6-16-22 0-34Z" fill="url(#shine)"/><path d="M-4-18c2 10 2 24-1 34M5-14c1 9 1 18-1 28" stroke="#7d4a2a" stroke-width="1.6" fill="none" opacity=".55"/></g><g transform="translate(550.0 410.0) rotate(-32) scale(0.96)"><path d="M0-34C16-22 20 6 12 22 6 32-6 32-12 22-20 6-16-22 0-34Z" fill="#a8683f"/><path d="M0-34C16-22 20 6 12 22 6 32-6 32-12 22-20 6-16-22 0-34Z" fill="url(#shine)"/><path d="M-4-18c2 10 2 24-1 34M5-14c1 9 1 18-1 28" stroke="#7d4a2a" stroke-width="1.6" fill="none" opacity=".55"/></g><g transform="translate(560.3 404.7) rotate(59) scale(0.97)"><path d="M0-34C16-22 20 6 12 22 6 32-6 32-12 22-20 6-16-22 0-34Z" fill="#a8683f"/><path d="M0-34C16-22 20 6 12 22 6 32-6 32-12 22-20 6-16-22 0-34Z" fill="url(#shine)"/><path d="M-4-18c2 10 2 24-1 34M5-14c1 9 1 18-1 28" stroke="#7d4a2a" stroke-width="1.6" fill="none" opacity=".55"/></g><g transform="translate(527.2 410.9) rotate(-34) scale(1.04)"><path d="M0-34C16-22 20 6 12 22 6 32-6 32-12 22-20 6-16-22 0-34Z" fill="#a8683f"/><path d="M0-34C16-22 20 6 12 22 6 32-6 32-12 22-20 6-16-22 0-34Z" fill="url(#shine)"/><path d="M-4-18c2 10 2 24-1 34M5-14c1 9 1 18-1 28" stroke="#7d4a2a" stroke-width="1.6" fill="none" opacity=".55"/></g><g transform="translate(325.2 379.3) rotate(25) scale(1.10)"><path d="M0-34C16-22 20 6 12 22 6 32-6 32-12 22-20 6-16-22 0-34Z" fill="#a8683f"/><path d="M0-34C16-22 20 6 12 22 6 32-6 32-12 22-20 6-16-22 0-34Z" fill="url(#shine)"/><path d="M-4-18c2 10 2 24-1 34M5-14c1 9 1 18-1 28" stroke="#7d4a2a" stroke-width="1.6" fill="none" opacity=".55"/></g><g transform="translate(386.5 370.8) rotate(-43) scale(0.81)"><path d="M0-34C16-22 20 6 12 22 6 32-6 32-12 22-20 6-16-22 0-34Z" fill="#a8683f"/><path d="M0-34C16-22 20 6 12 22 6 32-6 32-12 22-20 6-16-22 0-34Z" fill="url(#shine)"/><path d="M-4-18c2 10 2 24-1 34M5-14c1 9 1 18-1 28" stroke="#7d4a2a" stroke-width="1.6" fill="none" opacity=".55"/></g><g transform="translate(204.8 459.3) rotate(57) scale(1.02)"><path d="M0-34C16-22 20 6 12 22 6 32-6 32-12 22-20 6-16-22 0-34Z" fill="#a8683f"/><path d="M0-34C16-22 20 6 12 22 6 32-6 32-12 22-20 6-16-22 0-34Z" fill="url(#shine)"/><path d="M-4-18c2 10 2 24-1 34M5-14c1 9 1 18-1 28" stroke="#7d4a2a" stroke-width="1.6" fill="none" opacity=".55"/></g></g>
  <path d="M164 488c60 26 412 26 472 0" stroke="#cfb26a" stroke-width="2" fill="none" opacity=".5"/>
  <g transform="translate(653.8 655.5) rotate(-18) scale(0.86)"><path d="M0-34C16-22 20 6 12 22 6 32-6 32-12 22-20 6-16-22 0-34Z" fill="#a8683f"/><path d="M0-34C16-22 20 6 12 22 6 32-6 32-12 22-20 6-16-22 0-34Z" fill="url(#shine)"/><path d="M-4-18c2 10 2 24-1 34M5-14c1 9 1 18-1 28" stroke="#7d4a2a" stroke-width="1.6" fill="none" opacity=".55"/></g><g transform="translate(650.1 652.1) rotate(-41) scale(0.88)"><path d="M0-34C16-22 20 6 12 22 6 32-6 32-12 22-20 6-16-22 0-34Z" fill="#a8683f"/><path d="M0-34C16-22 20 6 12 22 6 32-6 32-12 22-20 6-16-22 0-34Z" fill="url(#shine)"/><path d="M-4-18c2 10 2 24-1 34M5-14c1 9 1 18-1 28" stroke="#7d4a2a" stroke-width="1.6" fill="none" opacity=".55"/></g><g transform="translate(651.6 654.4) rotate(8) scale(0.91)"><path d="M0-34C16-22 20 6 12 22 6 32-6 32-12 22-20 6-16-22 0-34Z" fill="#a8683f"/><path d="M0-34C16-22 20 6 12 22 6 32-6 32-12 22-20 6-16-22 0-34Z" fill="url(#shine)"/><path d="M-4-18c2 10 2 24-1 34M5-14c1 9 1 18-1 28" stroke="#7d4a2a" stroke-width="1.6" fill="none" opacity=".55"/></g><g transform="translate(627.0 652.4) rotate(22) scale(0.90)"><path d="M0-34C16-22 20 6 12 22 6 32-6 32-12 22-20 6-16-22 0-34Z" fill="#a8683f"/><path d="M0-34C16-22 20 6 12 22 6 32-6 32-12 22-20 6-16-22 0-34Z" fill="url(#shine)"/><path d="M-4-18c2 10 2 24-1 34M5-14c1 9 1 18-1 28" stroke="#7d4a2a" stroke-width="1.6" fill="none" opacity=".55"/></g><g transform="translate(579.5 655.9) rotate(21) scale(0.83)"><path d="M0-34C16-22 20 6 12 22 6 32-6 32-12 22-20 6-16-22 0-34Z" fill="#a8683f"/><path d="M0-34C16-22 20 6 12 22 6 32-6 32-12 22-20 6-16-22 0-34Z" fill="url(#shine)"/><path d="M-4-18c2 10 2 24-1 34M5-14c1 9 1 18-1 28" stroke="#7d4a2a" stroke-width="1.6" fill="none" opacity=".55"/></g>
</svg>