<svg xmlns="http://www.w3.org/2000/svg" viewBox="0 0 800 800" width="800" height="800"><defs>
  <radialGradient id="bg" cx="50%" cy="42%" r="70%"><stop offset="0" stop-color="#fbf7ef"/><stop offset="1" stop-color="#ecdfc8"/></radialGradient>
  <linearGradient id="shine" x1="0" x2="1"><stop offset="0" stop-color="#fff" stop-opacity=".22"/><stop offset=".5" stop-color="#fff" stop-opacity="0"/></linearGradient>
  <linearGradient id="bowl" x1="0" y1="0" x2="0" y2="1"><stop offset="0" stop-color="#2e5a3e"/><stop offset="1" stop-color="#1f3d2b"/></linearGradient>
  <linearGradient id="gold" x1="0" x2="1"><stop offset="0" stop-color="#cfb26a"/><stop offset=".5" stop-color="#e2cd92"/><stop offset="1" stop-color="#b8923a"/></linearGradient>
</defs>
  <rect width="800" height="800" fill="url(#bg)"/>
  <ellipse cx="400" cy="630" rx="250" ry="34" fill="#1f3d2b" opacity=".12"/>
  <path d="M150 480h500c0 110-110 170-250 170S150 590 150 480Z" fill="url(#bowl)"/>
  <path d="M150 480h500" stroke="url(#gold)" stroke-width="6" stroke-linecap="round"/>
  <g><g transform="translate(493.2 456.5) rotate(-43) scale(1.07)"><path d="M0-30c8 0 10 6 12 10 14 6 20 18 16 30C22 26 10 32 0 32s-22-6-28-22c-4-12 2-24 16-30C-10-24-8-30 0-30Z" fill="#b98652"/><path d="M0-22v48M-14-10c6 10 6 26 2 34M14-10c-6 10-6 26-2 34" stroke="#94643a" stroke-width="1.8" fill="none" opacity=".7"/></g><g transform="translate(370.8 385.8) rotate(73) scale(0.91)"><path d="M0-30c8 0 10 6 12 10 14 6 20 18 16 30C22 26 10 32 0 32s-22-6-28-22c-4-12 2-24 16-30C-10-24-8-30 0-30Z" fill="#b98652"/><path d="M0-22v48M-14-10c6 10 6 26 2 34M14-10c-6 10-6 26-2 34" stroke="#94643a" stroke-width="1.8" fill="none" opacity=".7"/></g><g transform="translate(603.9 475.3) rotate(-45) scale(0.89)"><path d="M0-30c8 0 10 6 12 10 14 6 20 18 16 30C22 26 10 32 0 32s-22-6-28-22c-4-12 2-24 16-30C-10-24-8-30 0-30Z" fill="#b98652"/><path d="M0-22v48M-14-10c6 10 6 26 2 34M14-10c-6 10-6 26-2 34" stroke="#94643a" stroke-width="1.8" fill="none" opacity=".7"/></g><g transform="translate(325.5 388.0) rotate(17) scale(0.82)"><path d="M0-30c8 0 10 6 12 10 14 6 20 18 16 30C22 26 10 32 0 32s-22-6-28-22c-4-12 2-24 16-30C-10-24-8-30 0-30Z" fill="#b98652"/><path d="M0-22v48M-14-10c6 10 6 26 2 34M14-10c-6 10-6 26-2 34" stroke="#94643a" stroke-width="1.8" fill="none" opacity=".7"/></g><g transform="translate(526.2 384.2) rotate(30) scale(1.05)"><path d="M0-30c8 0 10 6 12 10 14 6 20 18 16 30C22 26 10 32 0 32s-22-6-28-22c-4-12 2-24 16-30C-10-24-8-30 0-30Z" fill="#b98652"/><path d="M0-22v48M-14-10c6 10 6 26 2 34M14-10c-6 10-6 26-2 34" stroke="#94643a" stroke-width="1.8" fill="none" opacity=".7"/></g><g transform="translate(349.1 483.0) rotate(-22) scale(1.00)"><path d="M0-30c8 0 10 6 12 10 14 6 20 18 16 30C22 26 10 32 0 32s-22-6-28-22c-4-12 2-24 16-30C-10-24-8-30 0-30Z" fill="#b98652"/><path d="M0-22v48M-14-10c6 10 6 26 2 34M14-10c-6 10-6 26-2 34" stroke="#94643a" stroke-width="1.8" fill="none" opacity=".7"/></g><g transform="translate(201.2 529.7) rotate(-14) scale(0.92)"><path d="M0-30c8 0 10 6 12 10 14 6 20 18 16 30C22 26 10 32 0 32s-22-6-28-22c-4-12 2-24 16-30C-10-24-8-30 0-30Z" fill="#b98652"/><path d="M0-22v48M-14-10c6 10 6 26 2 34M14-10c-6 10-6 26-2 34" stroke="#94643a" stroke-width="1.8" fill="none" opacity=".7"/></g><g transform="translate(344.1 486.0) rotate(16) scale(1.02)"><path d="M0-30c8 0 10 6 12 10 14 6 20 18 16 30C22 26 10 32 0 32s-22-6-28-22c-4-12 2-24 16-30C-10-24-8-30 0-30Z" fill="#b98652"/><path d="M0-22v48M-14-10c6 10 6 26 2 34M14-10c-6 10-6 26-2 34" stroke="#94643a" stroke-width="1.8" fill="none" opacity=".7"/></g><g transform="translate(508.4 408.4) rotate(-63) scale(1.04)"><path d="M0-30c8 0 10 6 12 10 14 6 20 18 16 30C22 26 10 32 0 32s-22-6-28-22c-4-12 2-24 16-30C-10-24-8-30 0-30Z" fill="#b98652"/><path d="M0-22v48M-14-10c6 10 6 26 2 34M14-10c-6 10-6 26-2 34" stroke="#94643a" stroke-width="1.8" fill="none" opacity=".7"/></g><g transform="translate(219.9 456.9) rotate(55) scale(0.80)"><path d="M0-30c8 0 10 6 12 10 14 6 20 18 16 30C22 26 10 32 0 32s-22-6-28-22c-4-12 2-24 16-30C-10-24-8-30 0-30Z" fill="#b98652"/><path d="M0-22v48M-14-10c6 10 6 26 2 34M14-10c-6 10-6 26-2 34" stroke="#94643a" stroke-width="1.8" fill="none" opacity=".7"/></g><g transform="translate(276.0 381.3) rotate(-14) scale(0.96)"><path d="M0-30c8 0 10 6 12 10 14 6 20 18 16 30C22 26 10 32 0 32s-22-6-28-22c-4-12 2-24 16-30C-10-24-8-30 0-30Z" fill="#b98652"/><path d="M0-22v48M-14-10c6 10 6 26 2 34M14-10c-6 10-6 26-2 34" stroke="#94643a" stroke-width="1.8" fill="none" opacity=".7"/></g><g transform="translate(573.3 402.9) rotate(-31) scale(1.07)"><path d="M0-30c8 0 10 6 12 10 14 6 20 18 16 30C22 26 10 32 0 32s-22-6-28-22c-4-12 2-24 16-30C-10-24-8-30 0-30Z" fill="#b98652"/><path d="M0-22v48M-14-10c6 10 6 26 2 34M14-10c-6 10-6 26-2 34" stroke="#94643a" stroke-width="1.8" fill="none" opacity=".7"/></g><g transform="translate(280.6 468.2) rotate(66) scale(1.04)"><path d="M0-30c8 0 10 6 12 10 14 6 20 18 16 30C22 26 10 32 0 32s-22-6-28-22c-4-12 2-24 16-30C-10-24-8-30 0-30Z" fill="#b98652"/><path d="M0-22v48M-14-10c6 10 6 26 2 34M14-10c-6 10-6 26-2 34" stroke="#94643a" stroke-width="1.8" fill="none" opacity=".7"/></g><g transform="translate(361.5 454.6) rotate(-55) scale(0.97)"><path d="M0-30c8 0 10 6 12 10 14 6 20 18 16 30C22 26 10 32 0 32s-22-6-28-22c-4-12 2-24 16-30C-10-24-8-30 0-30Z" fill="#b98652"/><path d="M0-22v48M-14-10c6 10 6 26 2 34M14-10c-6 10-6 26-2 34" stroke="#94643a" stroke-width="1.8" fill="none" opacity=".7"/></g><g transform="translate(228.5 499.4) rotate(56) scale(1.00)"><path d="M0-30c8 0 10 6 12 10 14 6 20 18 16 30C22 26 10 32 0 32s-22-6-28-22c-4-12 2-24 16-30C-10-24-8-30 0-30Z" fill="#b98652"/><path d="M0-22v48M-14-10c6 10 6 26 2 34M14-10c-6 10-6 26-2 34" stroke="#94643a" stroke-width="1.8" fill="none" opacity=".7"/></g><g transform="translate(215.0 470.8) rotate(54) scale(1.07)"><path d="M0-30c8 0 10 6 12 10 14 6 20 18 16 30C22 26 10 32 0 32s-22-6-28-22c-4-12 2-24 16-30C-10-24-8-30 0-30Z" fill="#b98652"/><path d="M0-22v48M-14-10c6 10 6 26 2 34M14-10c-6 10-6 26-2 34" stroke="#94643a" stroke-width="1.8" fill="none" opacity=".7"/></g><g transform="translate(479.6 490.3) rotate(39) scale(1.13)"><path d="M0-30c8 0 10 6 12 10 14 6 20 18 16 30C22 26 10 32 0 32s-22-6-28-22c-4-12 2-24 16-30C-10-24-8-30 0-30Z" fill="#b98652"/><path d="M0-22v48M-14-10c6 10 6 26 2 34M14-10c-6 10-6 26-2 34" stroke="#94643a" stroke-width="1.8" fill="none" opacity=".7"/></g><g transform="translate(269.6 404.9) rotate(3) scale(0.90)"><path d="M0-30c8 0 10 6 12 10 14 6 20 18 16 30C22 26 10 32 0 32s-22-6-28-22c-4-12 2-24 16-30C-10-24-8-30 0-30Z" fill="#b98652"/><path d="M0-22v48M-14-10c6 10 6 26 2 34M14-10c-6 10-6 26-2 34" stroke="#94643a" stroke-width="1.8" fill="none" opacity=".7"/></g><g transform="translate(437.2 410.2) rotate(-28) scale(0.94)"><path d="M0-30c8 0 10 6 12 10 14 6 20 18 16 30C22 26 10 32 0 32s-22-6-28-22c-4-12 2-24 16-30C-10-24-8-30 0-30Z" fill="#b98652"/><path d="M0-22v48M-14-10c6 10 6 26 2 34M14-10c-6 10-6 26-2 34" stroke="#94643a" stroke-width="1.8" fill="none" opacity=".7"/></g><g transform="translate(292.4 431.4) rotate(67) scale(0.90)"><path d="M0-30c8 0 10 6 12 10 14 6 20 18 16 30C22 26 10 32 0 32s-22-6-28-22c-4-12 2-24 16-30C-10-24-8-30 0-30Z" fill="#b98652"/><path d="M0-22v48M-14-10c6 10 6 26 2 34M14-10c-6 10-6 26-2 34" stroke="#94643a" stroke-width="1.8" fill="none" opacity=".7"/></g><g transform="translate(371.4 425.5) rotate(35) scale(0.89)"><path d="M0-30c8 0 10 6 12 10 14 6 20 18 16 30C22 26 10 32 0 32s-22-6-28-22c-4-12 2-24 16-30C-10-24-8-30 0-30Z" fill="#b98652"/><path d="M0-22v48M-14-10c6 10 6 26 2 34M14-10c-6 10-6 26-2 34" stroke="#94643a" stroke-width="1.8" fill="none" opacity=".7"/></g><g transform="translate(532.8 490.8) rotate(-63) scale(1.06)"><path d="M0-30c8 0 10 6 12 10 14 6 20 18 16 30C22 26 10 32 0 32s-22-6-28-22c-4-12 2-24 16-30C-10-24-8-30 0-30Z" fill="#b98652"/><path d="M0-22v48M-14-10c6 10 6 26 2 34M14-10c-6 10-6 26-2 34" stroke="#94643a" stroke-width="1.8" fill="none" opacity=".7"/></g><g transform="translate(332.5 357.7) rotate(-57) scale(1.06)"><path d="M0-30c8 0 10 6 12 10 14 6 20 18 16 30C22 26 10 32 0 32s-22-6-28-22c-4-12 2-24 16-30C-10-24-8-30 0-30Z" fill="#b98652"/><path d="M0-22v48M-14-10c6 10 6 26 2 34M14-10c-6 10-6 26-2 34" stroke="#94643a" stroke-width="1.8" fill="none" opacity=".7"/></g><g transform="translate(262.6 456.5) rotate(-75) scale(0.89)"><path d="M0-30c8 0 10 6 12 10 14 6 20 18 16 30C22 26 10 32 0 32s-22-6-28-22c-4-12 2-24 16-30C-10-24-8-30 0-30Z" fill="#b98652"/><path d="M0-22v48M-14-10c6 10 6 26 2 34M14-10c-6 10-6 26-2 34" stroke="#94643a" stroke-width="1.8" fill="none" opacity=".7"/></g><g transform="translate(392.5 474.0) rotate(-72) scale(0.97)"><path d="M0-30c8 0 10 6 12 10 14 6 20 18 16 30C22 26 10 32 0 32s-22-6-28-22c-4-12 2-24 16-30C-10-24-8-30 0-30Z" fill="#b98652"/><path d="M0-22v48M-14-10c6 10 6 26 2 34M14-10c-6 10-6 26-2 34" stroke="#94643a" stroke-width="1.8" fill="none" opacity=".7"/></g><g transform="translate(305.7 382.4) rotate(-74) scale(1.03)"><path d="M0-30c8 0 10 6 12 10 14 6 20 18 16 30C22 26 10 32 0 32s-22-6-28-22c-4-12 2-24 16-30C-10-24-8-30 0-30Z" fill="#b98652"/><path d="M0-22v48M-14-10c6 10 6 26 2 34M14-10c-6 10-6 26-2 34" stroke="#94643a" stroke-width="1.8" fill="none" opacity=".7"/></g><g transform="translate(274.6 477.3) rotate(34) scale(0.95)"><path d="M0-30c8 0 10 6 12 10 14 6 20 18 16 30C22 26 10 32 0 32s-22-6-28-22c-4-12 2-24 16-30C-10-24-8-30 0-30Z" fill="#b98652"/><path d="M0-22v48M-14-10c6 10 6 26 2 34M14-10c-6 10-6 26-2 34" stroke="#94643a" stroke-width="1.8" fill="none" opacity=".7"/></g><g transform="translate(544.4 501.7) rotate(-5) scale(0.97)"><path d="M0-30c8 0 10 6 12 10 14 6 20 18 16 30C22 26 10 32 0 32s-22-6-28-22c-4-12 2-24 16-30C-10-24-8-30 0-30Z" fill="#b98652"/><path d="M0-22v48M-14-10c6 10 6 26 2 34M14-10c-6 10-6 26-2 34" stroke="#94643a" stroke-width="1.8" fill="none" opacity=".7"/></g><g transform="translate(219.3 408.3) rotate(-26) scale(1.02)"><path d="M0-30c8 0 10 6 12 10 14 6 20 18 16 30C22 26 10 32 0 32s-22-6-28-22c-4-12 2-24 16-30C-10-24-8-30 0-30Z" fill="#b98652"/><path d="M0-22v48M-14-10c6 10 6 26 2 34M14-10c-6 10-6 26-2 34" stroke="#94643a" stroke-width="1.8" fill="none" opacity=".7"/></g><g transform="translate(236.4 398.8) rotate(-64) scale(1.12)"><path d="M0-30c8 0 10 6 12 10 14 6 20 18 16 30C22 26 10 32 0 32s-22-6-28-22c-4-12 2-24 16-30C-10-24-8-30 0-30Z" fill="#b98652"/><path d="M0-22v48M-14-10c6 10 6 26 2 34M14-10c-6 10-6 26-2 34" stroke="#94643a" stroke-width="1.8" fill="none" opacity=".7"/></g><g transform="translate(247.8 481.9) rotate(-21) scale(1.02)"><path d="M0-30c8 0 10 6 12 10 14 6 20 18 16 30C22 26 10 32 0 32s-22-6-28-22c-4-12 2-24 16-30C-10-24-8-30 0-30Z" fill="#b98652"/><path d="M0-22v48M-14-10c6 10 6 26 2 34M14-10c-6 10-6 26-2 34" stroke="#94643a" stroke-width="1.8" fill="none" opacity=".7"/></g><g transform="translate(322.2 441.5) rotate(75) scale(0.87)"><path d="M0-30c8 0 10 6 12 10 14 6 20 18 16 30C22 26 10 32 0 32s-22-6-28-22c-4-12 2-24 16-30C-10-24-8-30 0-30Z" fill="#b98652"/><path d="M0-22v48M-14-10c6 10 6 26 2 34M14-10c-6 10-6 26-2 34" stroke="#94643a" stroke-width="1.8" fill="none" opacity=".7"/></g></g>
  <path d="M164 488c60 26 412 26 472 0" stroke="#cfb26a" stroke-width="2" fill="none" opacity=".5"/>
  <g transform="translate(611.2 651.6) rotate(55) scale(1.00)"><path d="M0-30c8 0 10 6 12 10 14 6 20 18 16 30C22 26 10 32 0 32s-22-6-28-22c-4-12 2-24 16-30C-10-24-8-30 0-30Z" fill="#b98652"/><path d="M0-22v48M-14-10c6 10 6 26 2 34M14-10c-6 10-6 26-2 34" stroke="#94643a" stroke-width="1.8" fill="none" opacity=".7"/></g><g transform="translate(634.0 647.2) rotate(1) scale(0.97)"><path d="M0-30c8 0 10 6 12 10 14 6 20 18 16 30C22 26 10 32 0 32s-22-6-28-22c-4-12 2-24 16-30C-10-24-8-30 0-30Z" fill="#b98652"/><path d="M0-22v48M-14-10c6 10 6 26 2 34M14-10c-6 10-6 26-2 34" stroke="#94643a" stroke-width="1.8" fill="none" opacity=".7"/></g><g transform="translate(616.2 648.3) rotate(-34) scale(0.73)"><path d="M0-30c8 0 10 6 12 10 14 6 20 18 16 30C22 26 10 32 0 32s-22-6-28-22c-4-12 2-24 16-30C-10-24-8-30 0-30Z" fill="#b98652"/><path d="M0-22v48M-14-10c6 10 6 26 2 34M14-10c-6 10-6 26-2 34" stroke="#94643a" stroke-width="1.8" fill="none" opacity=".7"/></g><g transform="translate(651.4 649.7) rotate(59) scale(0.87)"><path d="M0-30c8 0 10 6 12 10 14 6 20 18 16 30C22 26 10 32 0 32s-22-6-28-22c-4-12 2-24 16-30C-10-24-8-30 0-30Z" fill="#b98652"/><path d="M0-22v48M-14-10c6 10 6 26 2 34M14-10c-6 10-6 26-2 34" stroke="#94643a" stroke-width="1.8" fill="none" opacity=".7"/></g><g transform="translate(565.6 652.4) rotate(-1) scale(0.78)"><path d="M0-30c8 0 10 6 12 10 14 6 20 18 16 30C22 26 10 32 0 32s-22-6-28-22c-4-12 2-24 16-30C-10-24-8-30 0-30Z" fill="#b98652"/><path d="M0-22v48M-14-10c6 10 6 26 2 34M14-10c-6 10-6 26-2 34" stroke="#94643a" stroke-width="1.8" fill="none" opacity=".7"/></g>
</svg>