<svg xmlns="http://www.w3.org/2000/svg" viewBox="0 0 800 800" width="800" height="800"><defs>
  <radialGradient id="bg" cx="50%" cy="42%" r="70%"><stop offset="0" stop-color="#fbf7ef"/><stop offset="1" stop-color="#ecdfc8"/></radialGradient>
  <linearGradient id="shine" x1="0" x2="1"><stop offset="0" stop-color="#fff" stop-opacity=".22"/><stop offset=".5" stop-color="#fff" stop-opacity="0"/></linearGradient>
  <linearGradient id="bowl" x1="0" y1="0" x2="0" y2="1"><stop offset="0" stop-color="#2e5a3e"/><stop offset="1" stop-color="#1f3d2b"/></linearGradient>
  <linearGradient id="gold" x1="0" x2="1"><stop offset="0" stop-color="#cfb26a"/><stop offset=".5" stop-color="#e2cd92"/><stop offset="1" stop-color="#b8923a"/></linearGradient>
</defs><rect width="800" height="800" fill="#f5eee1"/><g transform="translate(613.9 566.4) rotate(-49) scale(1.50)"><ellipse rx="15" ry="30" fill="#5a2e1b"/><ellipse cx="-4" cy="-8" rx="4" ry="14" fill="#8a4a2c" opacity=".7"/><path d="M8-18c-3 8-3 22 0 32" stroke="#3e1f12" stroke-width="1.6" fill="none" opacity=".6"/></g><g transform="translate(191.4 569.9) rotate(67) scale(1.84)"><ellipse rx="15" ry="30" fill="#5a2e1b"/><ellipse cx="-4" cy="-8" rx="4" ry="14" fill="#8a4a2c" opacity=".7"/><path d="M8-18c-3 8-3 22 0 32" stroke="#3e1f12" stroke-width="1.6" fill="none" opacity=".6"/></g><g transform="translate(596.4 203.3) rotate(37) scale(1.56)"><ellipse rx="15" ry="30" fill="#5a2e1b"/><ellipse cx="-4" cy="-8" rx="4" ry="14" fill="#8a4a2c" opacity=".7"/><path d="M8-18c-3 8-3 22 0 32" stroke="#3e1f12" stroke-width="1.6" fill="none" opacity=".6"/></g><g transform="translate(338.6 441.3) rotate(-38) scale(1.65)"><ellipse rx="15" ry="30" fill="#5a2e1b"/><ellipse cx="-4" cy="-8" rx="4" ry="14" fill="#8a4a2c" opacity=".7"/><path d="M8-18c-3 8-3 22 0 32" stroke="#3e1f12" stroke-width="1.6" fill="none" opacity=".6"/></g><g transform="translate(453.9 342.7) rotate(-68) scale(1.71)"><ellipse rx="15" ry="30" fill="#5a2e1b"/><ellipse cx="-4" cy="-8" rx="4" ry="14" fill="#8a4a2c" opacity=".7"/><path d="M8-18c-3 8-3 22 0 32" stroke="#3e1f12" stroke-width="1.6" fill="none" opacity=".6"/></g><g transform="translate(549.4 653.4) rotate(-49) scale(1.84)"><ellipse rx="15" ry="30" fill="#5a2e1b"/><ellipse cx="-4" cy="-8" rx="4" ry="14" fill="#8a4a2c" opacity=".7"/><path d="M8-18c-3 8-3 22 0 32" stroke="#3e1f12" stroke-width="1.6" fill="none" opacity=".6"/></g><g transform="translate(696.8 489.2) rotate(6) scale(1.74)"><ellipse rx="15" ry="30" fill="#5a2e1b"/><ellipse cx="-4" cy="-8" rx="4" ry="14" fill="#8a4a2c" opacity=".7"/><path d="M8-18c-3 8-3 22 0 32" stroke="#3e1f12" stroke-width="1.6" fill="none" opacity=".6"/></g><g transform="translate(289.8 94.0) rotate(-67) scale(1.47)"><ellipse rx="15" ry="30" fill="#5a2e1b"/><ellipse cx="-4" cy="-8" rx="4" ry="14" fill="#8a4a2c" opacity=".7"/><path d="M8-18c-3 8-3 22 0 32" stroke="#3e1f12" stroke-width="1.6" fill="none" opacity=".6"/></g><g transform="translate(537.7 294.7) rotate(-27) scale(1.46)"><ellipse rx="15" ry="30" fill="#5a2e1b"/><ellipse cx="-4" cy="-8" rx="4" ry="14" fill="#8a4a2c" opacity=".7"/><path d="M8-18c-3 8-3 22 0 32" stroke="#3e1f12" stroke-width="1.6" fill="none" opacity=".6"/></g><g transform="translate(619.2 196.3) rotate(-20) scale(1.82)"><ellipse rx="15" ry="30" fill="#5a2e1b"/><ellipse cx="-4" cy="-8" rx="4" ry="14" fill="#8a4a2c" opacity=".7"/><path d="M8-18c-3 8-3 22 0 32" stroke="#3e1f12" stroke-width="1.6" fill="none" opacity=".6"/></g><g transform="translate(565.8 580.8) rotate(13) scale(1.57)"><ellipse rx="15" ry="30" fill="#5a2e1b"/><ellipse cx="-4" cy="-8" rx="4" ry="14" fill="#8a4a2c" opacity=".7"/><path d="M8-18c-3 8-3 22 0 32" stroke="#3e1f12" stroke-width="1.6" fill="none" opacity=".6"/></g><g transform="translate(15.5 546.3) rotate(-31) scale(1.75)"><ellipse rx="15" ry="30" fill="#5a2e1b"/><ellipse cx="-4" cy="-8" rx="4" ry="14" fill="#8a4a2c" opacity=".7"/><path d="M8-18c-3 8-3 22 0 32" stroke="#3e1f12" stroke-width="1.6" fill="none" opacity=".6"/></g><g transform="translate(133.9 257.3) rotate(-33) scale(1.49)"><ellipse rx="15" ry="30" fill="#5a2e1b"/><ellipse cx="-4" cy="-8" rx="4" ry="14" fill="#8a4a2c" opacity=".7"/><path d="M8-18c-3 8-3 22 0 32" stroke="#3e1f12" stroke-width="1.6" fill="none" opacity=".6"/></g><g transform="translate(443.4 419.5) rotate(64) scale(1.67)"><ellipse rx="15" ry="30" fill="#5a2e1b"/><ellipse cx="-4" cy="-8" rx="4" ry="14" fill="#8a4a2c" opacity=".7"/><path d="M8-18c-3 8-3 22 0 32" stroke="#3e1f12" stroke-width="1.6" fill="none" opacity=".6"/></g><g transform="translate(264.7 810.5) rotate(73) scale(1.69)"><ellipse rx="15" ry="30" fill="#5a2e1b"/><ellipse cx="-4" cy="-8" rx="4" ry="14" fill="#8a4a2c" opacity=".7"/><path d="M8-18c-3 8-3 22 0 32" stroke="#3e1f12" stroke-width="1.6" fill="none" opacity=".6"/></g><g transform="translate(452.2 615.4) rotate(-32) scale(1.67)"><ellipse rx="15" ry="30" fill="#5a2e1b"/><ellipse cx="-4" cy="-8" rx="4" ry="14" fill="#8a4a2c" opacity=".7"/><path d="M8-18c-3 8-3 22 0 32" stroke="#3e1f12" stroke-width="1.6" fill="none" opacity=".6"/></g><g transform="translate(101.7 516.4) rotate(70) scale(1.61)"><ellipse rx="15" ry="30" fill="#5a2e1b"/><ellipse cx="-4" cy="-8" rx="4" ry="14" fill="#8a4a2c" opacity=".7"/><path d="M8-18c-3 8-3 22 0 32" stroke="#3e1f12" stroke-width="1.6" fill="none" opacity=".6"/></g><g transform="translate(390.3 346.2) rotate(-75) scale(1.37)"><ellipse rx="15" ry="30" fill="#5a2e1b"/><ellipse cx="-4" cy="-8" rx="4" ry="14" fill="#8a4a2c" opacity=".7"/><path d="M8-18c-3 8-3 22 0 32" stroke="#3e1f12" stroke-width="1.6" fill="none" opacity=".6"/></g><g transform="translate(621.6 662.4) rotate(-79) scale(1.82)"><ellipse rx="15" ry="30" fill="#5a2e1b"/><ellipse cx="-4" cy="-8" rx="4" ry="14" fill="#8a4a2c" opacity=".7"/><path d="M8-18c-3 8-3 22 0 32" stroke="#3e1f12" stroke-width="1.6" fill="none" opacity=".6"/></g><g transform="translate(315.9 453.6) rotate(-39) scale(1.64)"><ellipse rx="15" ry="30" fill="#5a2e1b"/><ellipse cx="-4" cy="-8" rx="4" ry="14" fill="#8a4a2c" opacity=".7"/><path d="M8-18c-3 8-3 22 0 32" stroke="#3e1f12" stroke-width="1.6" fill="none" opacity=".6"/></g><g transform="translate(138.1 613.4) rotate(-38) scale(1.30)"><ellipse rx="15" ry="30" fill="#5a2e1b"/><ellipse cx="-4" cy="-8" rx="4" ry="14" fill="#8a4a2c" opacity=".7"/><path d="M8-18c-3 8-3 22 0 32" stroke="#3e1f12" stroke-width="1.6" fill="none" opacity=".6"/></g><g transform="translate(285.3 289.0) rotate(-40) scale(1.39)"><ellipse rx="15" ry="30" fill="#5a2e1b"/><ellipse cx="-4" cy="-8" rx="4" ry="14" fill="#8a4a2c" opacity=".7"/><path d="M8-18c-3 8-3 22 0 32" stroke="#3e1f12" stroke-width="1.6" fill="none" opacity=".6"/></g><g transform="translate(363.2 696.7) rotate(9) scale(1.49)"><ellipse rx="15" ry="30" fill="#5a2e1b"/><ellipse cx="-4" cy="-8" rx="4" ry="14" fill="#8a4a2c" opacity=".7"/><path d="M8-18c-3 8-3 22 0 32" stroke="#3e1f12" stroke-width="1.6" fill="none" opacity=".6"/></g><g transform="translate(65.3 860.3) rotate(57) scale(1.69)"><ellipse rx="15" ry="30" fill="#5a2e1b"/><ellipse cx="-4" cy="-8" rx="4" ry="14" fill="#8a4a2c" opacity=".7"/><path d="M8-18c-3 8-3 22 0 32" stroke="#3e1f12" stroke-width="1.6" fill="none" opacity=".6"/></g><g transform="translate(204.5 313.8) rotate(69) scale(1.44)"><ellipse rx="15" ry="30" fill="#5a2e1b"/><ellipse cx="-4" cy="-8" rx="4" ry="14" fill="#8a4a2c" opacity=".7"/><path d="M8-18c-3 8-3 22 0 32" stroke="#3e1f12" stroke-width="1.6" fill="none" opacity=".6"/></g><g transform="translate(119.4 878.3) rotate(-49) scale(1.75)"><ellipse rx="15" ry="30" fill="#5a2e1b"/><ellipse cx="-4" cy="-8" rx="4" ry="14" fill="#8a4a2c" opacity=".7"/><path d="M8-18c-3 8-3 22 0 32" stroke="#3e1f12" stroke-width="1.6" fill="none" opacity=".6"/></g><g transform="translate(721.8 630.3) rotate(-69) scale(1.39)"><ellipse rx="15" ry="30" fill="#5a2e1b"/><ellipse cx="-4" cy="-8" rx="4" ry="14" fill="#8a4a2c" opacity=".7"/><path d="M8-18c-3 8-3 22 0 32" stroke="#3e1f12" stroke-width="1.6" fill="none" opacity=".6"/></g><g transform="translate(463.6 229.2) rotate(61) scale(1.76)"><ellipse rx="15" ry="30" fill="#5a2e1b"/><ellipse cx="-4" cy="-8" rx="4" ry="14" fill="#8a4a2c" opacity=".7"/><path d="M8-18c-3 8-3 22 0 32" stroke="#3e1f12" stroke-width="1.6" fill="none" opacity=".6"/></g><g transform="translate(-48.0 624.4) rotate(27) scale(1.67)"><ellipse rx="15" ry="30" fill="#5a2e1b"/><ellipse cx="-4" cy="-8" rx="4" ry="14" fill="#8a4a2c" opacity=".7"/><path d="M8-18c-3 8-3 22 0 32" stroke="#3e1f12" stroke-width="1.6" fill="none" opacity=".6"/></g><g transform="translate(120.7 415.3) rotate(52) scale(1.74)"><ellipse rx="15" ry="30" fill="#5a2e1b"/><ellipse cx="-4" cy="-8" rx="4" ry="14" fill="#8a4a2c" opacity=".7"/><path d="M8-18c-3 8-3 22 0 32" stroke="#3e1f12" stroke-width="1.6" fill="none" opacity=".6"/></g><g transform="translate(279.1 594.9) rotate(-17) scale(1.31)"><ellipse rx="15" ry="30" fill="#5a2e1b"/><ellipse cx="-4" cy="-8" rx="4" ry="14" fill="#8a4a2c" opacity=".7"/><path d="M8-18c-3 8-3 22 0 32" stroke="#3e1f12" stroke-width="1.6" fill="none" opacity=".6"/></g><g transform="translate(692.2 745.8) rotate(-18) scale(1.59)"><ellipse rx="15" ry="30" fill="#5a2e1b"/><ellipse cx="-4" cy="-8" rx="4" ry="14" fill="#8a4a2c" opacity=".7"/><path d="M8-18c-3 8-3 22 0 32" stroke="#3e1f12" stroke-width="1.6" fill="none" opacity=".6"/></g><g transform="translate(414.5 327.1) rotate(61) scale(1.51)"><ellipse rx="15" ry="30" fill="#5a2e1b"/><ellipse cx="-4" cy="-8" rx="4" ry="14" fill="#8a4a2c" opacity=".7"/><path d="M8-18c-3 8-3 22 0 32" stroke="#3e1f12" stroke-width="1.6" fill="none" opacity=".6"/></g><g transform="translate(770.3 923.1) rotate(63) scale(1.71)"><ellipse rx="15" ry="30" fill="#5a2e1b"/><ellipse cx="-4" cy="-8" rx="4" ry="14" fill="#8a4a2c" opacity=".7"/><path d="M8-18c-3 8-3 22 0 32" stroke="#3e1f12" stroke-width="1.6" fill="none" opacity=".6"/></g><g transform="translate(253.1 376.5) rotate(49) scale(1.37)"><ellipse rx="15" ry="30" fill="#5a2e1b"/><ellipse cx="-4" cy="-8" rx="4" ry="14" fill="#8a4a2c" opacity=".7"/><path d="M8-18c-3 8-3 22 0 32" stroke="#3e1f12" stroke-width="1.6" fill="none" opacity=".6"/></g><g transform="translate(81.3 684.0) rotate(-66) scale(1.61)"><ellipse rx="15" ry="30" fill="#5a2e1b"/><ellipse cx="-4" cy="-8" rx="4" ry="14" fill="#8a4a2c" opacity=".7"/><path d="M8-18c-3 8-3 22 0 32" stroke="#3e1f12" stroke-width="1.6" fill="none" opacity=".6"/></g><g transform="translate(550.2 317.7) rotate(19) scale(1.69)"><ellipse rx="15" ry="30" fill="#5a2e1b"/><ellipse cx="-4" cy="-8" rx="4" ry="14" fill="#8a4a2c" opacity=".7"/><path d="M8-18c-3 8-3 22 0 32" stroke="#3e1f12" stroke-width="1.6" fill="none" opacity=".6"/></g><g transform="translate(503.6 831.3) rotate(47) scale(1.74)"><ellipse rx="15" ry="30" fill="#5a2e1b"/><ellipse cx="-4" cy="-8" rx="4" ry="14" fill="#8a4a2c" opacity=".7"/><path d="M8-18c-3 8-3 22 0 32" stroke="#3e1f12" stroke-width="1.6" fill="none" opacity=".6"/></g><g transform="translate(457.1 79.0) rotate(2) scale(1.74)"><ellipse rx="15" ry="30" fill="#5a2e1b"/><ellipse cx="-4" cy="-8" rx="4" ry="14" fill="#8a4a2c" opacity=".7"/><path d="M8-18c-3 8-3 22 0 32" stroke="#3e1f12" stroke-width="1.6" fill="none" opacity=".6"/></g><g transform="translate(705.3 586.9) rotate(18) scale(1.35)"><ellipse rx="15" ry="30" fill="#5a2e1b"/><ellipse cx="-4" cy="-8" rx="4" ry="14" fill="#8a4a2c" opacity=".7"/><path d="M8-18c-3 8-3 22 0 32" stroke="#3e1f12" stroke-width="1.6" fill="none" opacity=".6"/></g><g transform="translate(190.3 347.1) rotate(14) scale(1.34)"><ellipse rx="15" ry="30" fill="#5a2e1b"/><ellipse cx="-4" cy="-8" rx="4" ry="14" fill="#8a4a2c" opacity=".7"/><path d="M8-18c-3 8-3 22 0 32" stroke="#3e1f12" stroke-width="1.6" fill="none" opacity=".6"/></g><g transform="translate(398.4 163.3) rotate(-12) scale(1.44)"><ellipse rx="15" ry="30" fill="#5a2e1b"/><ellipse cx="-4" cy="-8" rx="4" ry="14" fill="#8a4a2c" opacity=".7"/><path d="M8-18c-3 8-3 22 0 32" stroke="#3e1f12" stroke-width="1.6" fill="none" opacity=".6"/></g><g transform="translate(599.4 302.7) rotate(-68) scale(1.29)"><ellipse rx="15" ry="30" fill="#5a2e1b"/><ellipse cx="-4" cy="-8" rx="4" ry="14" fill="#8a4a2c" opacity=".7"/><path d="M8-18c-3 8-3 22 0 32" stroke="#3e1f12" stroke-width="1.6" fill="none" opacity=".6"/></g><g transform="translate(547.0 243.6) rotate(23) scale(1.76)"><ellipse rx="15" ry="30" fill="#5a2e1b"/><ellipse cx="-4" cy="-8" rx="4" ry="14" fill="#8a4a2c" opacity=".7"/><path d="M8-18c-3 8-3 22 0 32" stroke="#3e1f12" stroke-width="1.6" fill="none" opacity=".6"/></g><g transform="translate(258.3 321.8) rotate(13) scale(1.46)"><ellipse rx="15" ry="30" fill="#5a2e1b"/><ellipse cx="-4" cy="-8" rx="4" ry="14" fill="#8a4a2c" opacity=".7"/><path d="M8-18c-3 8-3 22 0 32" stroke="#3e1f12" stroke-width="1.6" fill="none" opacity=".6"/></g><g transform="translate(449.9 737.9) rotate(41) scale(1.67)"><ellipse rx="15" ry="30" fill="#5a2e1b"/><ellipse cx="-4" cy="-8" rx="4" ry="14" fill="#8a4a2c" opacity=".7"/><path d="M8-18c-3 8-3 22 0 32" stroke="#3e1f12" stroke-width="1.6" fill="none" opacity=".6"/></g><g transform="translate(124.2 290.9) rotate(-2) scale(1.32)"><ellipse rx="15" ry="30" fill="#5a2e1b"/><ellipse cx="-4" cy="-8" rx="4" ry="14" fill="#8a4a2c" opacity=".7"/><path d="M8-18c-3 8-3 22 0 32" stroke="#3e1f12" stroke-width="1.6" fill="none" opacity=".6"/></g><g transform="translate(675.7 691.2) rotate(-64) scale(1.38)"><ellipse rx="15" ry="30" fill="#5a2e1b"/><ellipse cx="-4" cy="-8" rx="4" ry="14" fill="#8a4a2c" opacity=".7"/><path d="M8-18c-3 8-3 22 0 32" stroke="#3e1f12" stroke-width="1.6" fill="none" opacity=".6"/></g><g transform="translate(658.3 384.7) rotate(36) scale(1.36)"><ellipse rx="15" ry="30" fill="#5a2e1b"/><ellipse cx="-4" cy="-8" rx="4" ry="14" fill="#8a4a2c" opacity=".7"/><path d="M8-18c-3 8-3 22 0 32" stroke="#3e1f12" stroke-width="1.6" fill="none" opacity=".6"/></g><g transform="translate(220.4 581.8) rotate(-6) scale(1.60)"><ellipse rx="15" ry="30" fill="#5a2e1b"/><ellipse cx="-4" cy="-8" rx="4" ry="14" fill="#8a4a2c" opacity=".7"/><path d="M8-18c-3 8-3 22 0 32" stroke="#3e1f12" stroke-width="1.6" fill="none" opacity=".6"/></g><g transform="translate(115.2 431.1) rotate(-58) scale(1.49)"><ellipse rx="15" ry="30" fill="#5a2e1b"/><ellipse cx="-4" cy="-8" rx="4" ry="14" fill="#8a4a2c" opacity=".7"/><path d="M8-18c-3 8-3 22 0 32" stroke="#3e1f12" stroke-width="1.6" fill="none" opacity=".6"/></g><g transform="translate(484.6 505.3) rotate(-53) scale(1.75)"><ellipse rx="15" ry="30" fill="#5a2e1b"/><ellipse cx="-4" cy="-8" rx="4" ry="14" fill="#8a4a2c" opacity=".7"/><path d="M8-18c-3 8-3 22 0 32" stroke="#3e1f12" stroke-width="1.6" fill="none" opacity=".6"/></g><g transform="translate(111.8 304.0) rotate(-13) scale(1.49)"><ellipse rx="15" ry="30" fill="#5a2e1b"/><ellipse cx="-4" cy="-8" rx="4" ry="14" fill="#8a4a2c" opacity=".7"/><path d="M8-18c-3 8-3 22 0 32" stroke="#3e1f12" stroke-width="1.6" fill="none" opacity=".6"/></g><g transform="translate(141.1 627.0) rotate(-38) scale(1.51)"><ellipse rx="15" ry="30" fill="#5a2e1b"/><ellipse cx="-4" cy="-8" rx="4" ry="14" fill="#8a4a2c" opacity=".7"/><path d="M8-18c-3 8-3 22 0 32" stroke="#3e1f12" stroke-width="1.6" fill="none" opacity=".6"/></g><g transform="translate(263.2 325.6) rotate(74) scale(1.43)"><ellipse rx="15" ry="30" fill="#5a2e1b"/><ellipse cx="-4" cy="-8" rx="4" ry="14" fill="#8a4a2c" opacity=".7"/><path d="M8-18c-3 8-3 22 0 32" stroke="#3e1f12" stroke-width="1.6" fill="none" opacity=".6"/></g><g transform="translate(453.7 334.5) rotate(-64) scale(1.73)"><ellipse rx="15" ry="30" fill="#5a2e1b"/><ellipse cx="-4" cy="-8" rx="4" ry="14" fill="#8a4a2c" opacity=".7"/><path d="M8-18c-3 8-3 22 0 32" stroke="#3e1f12" stroke-width="1.6" fill="none" opacity=".6"/></g><g transform="translate(811.3 825.7) rotate(76) scale(1.74)"><ellipse rx="15" ry="30" fill="#5a2e1b"/><ellipse cx="-4" cy="-8" rx="4" ry="14" fill="#8a4a2c" opacity=".7"/><path d="M8-18c-3 8-3 22 0 32" stroke="#3e1f12" stroke-width="1.6" fill="none" opacity=".6"/></g><g transform="translate(292.4 406.8) rotate(77) scale(1.53)"><ellipse rx="15" ry="30" fill="#5a2e1b"/><ellipse cx="-4" cy="-8" rx="4" ry="14" fill="#8a4a2c" opacity=".7"/><path d="M8-18c-3 8-3 22 0 32" stroke="#3e1f12" stroke-width="1.6" fill="none" opacity=".6"/></g><g transform="translate(257.4 248.6) rotate(38) scale(1.78)"><ellipse rx="15" ry="30" fill="#5a2e1b"/><ellipse cx="-4" cy="-8" rx="4" ry="14" fill="#8a4a2c" opacity=".7"/><path d="M8-18c-3 8-3 22 0 32" stroke="#3e1f12" stroke-width="1.6" fill="none" opacity=".6"/></g><g transform="translate(796.3 302.9) rotate(10) scale(1.69)"><ellipse rx="15" ry="30" fill="#5a2e1b"/><ellipse cx="-4" cy="-8" rx="4" ry="14" fill="#8a4a2c" opacity=".7"/><path d="M8-18c-3 8-3 22 0 32" stroke="#3e1f12" stroke-width="1.6" fill="none" opacity=".6"/></g><g transform="translate(193.0 163.6) rotate(-55) scale(1.77)"><ellipse rx="15" ry="30" fill="#5a2e1b"/><ellipse cx="-4" cy="-8" rx="4" ry="14" fill="#8a4a2c" opacity=".7"/><path d="M8-18c-3 8-3 22 0 32" stroke="#3e1f12" stroke-width="1.6" fill="none" opacity=".6"/></g><g transform="translate(393.0 259.5) rotate(-74) scale(1.62)"><ellipse rx="15" ry="30" fill="#5a2e1b"/><ellipse cx="-4" cy="-8" rx="4" ry="14" fill="#8a4a2c" opacity=".7"/><path d="M8-18c-3 8-3 22 0 32" stroke="#3e1f12" stroke-width="1.6" fill="none" opacity=".6"/></g><g transform="translate(583.7 167.5) rotate(43) scale(1.45)"><ellipse rx="15" ry="30" fill="#5a2e1b"/><ellipse cx="-4" cy="-8" rx="4" ry="14" fill="#8a4a2c" opacity=".7"/><path d="M8-18c-3 8-3 22 0 32" stroke="#3e1f12" stroke-width="1.6" fill="none" opacity=".6"/></g><g transform="translate(471.4 135.2) rotate(20) scale(1.60)"><ellipse rx="15" ry="30" fill="#5a2e1b"/><ellipse cx="-4" cy="-8" rx="4" ry="14" fill="#8a4a2c" opacity=".7"/><path d="M8-18c-3 8-3 22 0 32" stroke="#3e1f12" stroke-width="1.6" fill="none" opacity=".6"/></g><g transform="translate(78.0 693.0) rotate(-64) scale(1.33)"><ellipse rx="15" ry="30" fill="#5a2e1b"/><ellipse cx="-4" cy="-8" rx="4" ry="14" fill="#8a4a2c" opacity=".7"/><path d="M8-18c-3 8-3 22 0 32" stroke="#3e1f12" stroke-width="1.6" fill="none" opacity=".6"/></g><g transform="translate(90.5 488.7) rotate(-6) scale(1.63)"><ellipse rx="15" ry="30" fill="#5a2e1b"/><ellipse cx="-4" cy="-8" rx="4" ry="14" fill="#8a4a2c" opacity=".7"/><path d="M8-18c-3 8-3 22 0 32" stroke="#3e1f12" stroke-width="1.6" fill="none" opacity=".6"/></g><g transform="translate(714.5 984.0) rotate(-76) scale(1.33)"><ellipse rx="15" ry="30" fill="#5a2e1b"/><ellipse cx="-4" cy="-8" rx="4" ry="14" fill="#8a4a2c" opacity=".7"/><path d="M8-18c-3 8-3 22 0 32" stroke="#3e1f12" stroke-width="1.6" fill="none" opacity=".6"/></g><g transform="translate(-25.7 893.0) rotate(-20) scale(1.69)"><ellipse rx="15" ry="30" fill="#5a2e1b"/><ellipse cx="-4" cy="-8" rx="4" ry="14" fill="#8a4a2c" opacity=".7"/><path d="M8-18c-3 8-3 22 0 32" stroke="#3e1f12" stroke-width="1.6" fill="none" opacity=".6"/></g><g transform="translate(341.8 398.7) rotate(-32) scale(1.65)"><ellipse rx="15" ry="30" fill="#5a2e1b"/><ellipse cx="-4" cy="-8" rx="4" ry="14" fill="#8a4a2c" opacity=".7"/><path d="M8-18c-3 8-3 22 0 32" stroke="#3e1f12" stroke-width="1.6" fill="none" opacity=".6"/></g><g transform="translate(631.1 739.6) rotate(-71) scale(1.29)"><ellipse rx="15" ry="30" fill="#5a2e1b"/><ellipse cx="-4" cy="-8" rx="4" ry="14" fill="#8a4a2c" opacity=".7"/><path d="M8-18c-3 8-3 22 0 32" stroke="#3e1f12" stroke-width="1.6" fill="none" opacity=".6"/></g><g transform="translate(611.3 370.7) rotate(64) scale(1.59)"><ellipse rx="15" ry="30" fill="#5a2e1b"/><ellipse cx="-4" cy="-8" rx="4" ry="14" fill="#8a4a2c" opacity=".7"/><path d="M8-18c-3 8-3 22 0 32" stroke="#3e1f12" stroke-width="1.6" fill="none" opacity=".6"/></g><g transform="translate(255.8 577.6) rotate(19) scale(1.48)"><ellipse rx="15" ry="30" fill="#5a2e1b"/><ellipse cx="-4" cy="-8" rx="4" ry="14" fill="#8a4a2c" opacity=".7"/><path d="M8-18c-3 8-3 22 0 32" stroke="#3e1f12" stroke-width="1.6" fill="none" opacity=".6"/></g><g transform="translate(511.1 798.3) rotate(-42) scale(1.42)"><ellipse rx="15" ry="30" fill="#5a2e1b"/><ellipse cx="-4" cy="-8" rx="4" ry="14" fill="#8a4a2c" opacity=".7"/><path d="M8-18c-3 8-3 22 0 32" stroke="#3e1f12" stroke-width="1.6" fill="none" opacity=".6"/></g><g transform="translate(384.9 434.1) rotate(-66) scale(1.55)"><ellipse rx="15" ry="30" fill="#5a2e1b"/><ellipse cx="-4" cy="-8" rx="4" ry="14" fill="#8a4a2c" opacity=".7"/><path d="M8-18c-3 8-3 22 0 32" stroke="#3e1f12" stroke-width="1.6" fill="none" opacity=".6"/></g><g transform="translate(327.5 756.2) rotate(56) scale(1.50)"><ellipse rx="15" ry="30" fill="#5a2e1b"/><ellipse cx="-4" cy="-8" rx="4" ry="14" fill="#8a4a2c" opacity=".7"/><path d="M8-18c-3 8-3 22 0 32" stroke="#3e1f12" stroke-width="1.6" fill="none" opacity=".6"/></g><g transform="translate(29.9 936.3) rotate(-3) scale(1.34)"><ellipse rx="15" ry="30" fill="#5a2e1b"/><ellipse cx="-4" cy="-8" rx="4" ry="14" fill="#8a4a2c" opacity=".7"/><path d="M8-18c-3 8-3 22 0 32" stroke="#3e1f12" stroke-width="1.6" fill="none" opacity=".6"/></g><g transform="translate(509.7 90.3) rotate(-2) scale(1.46)"><ellipse rx="15" ry="30" fill="#5a2e1b"/><ellipse cx="-4" cy="-8" rx="4" ry="14" fill="#8a4a2c" opacity=".7"/><path d="M8-18c-3 8-3 22 0 32" stroke="#3e1f12" stroke-width="1.6" fill="none" opacity=".6"/></g><g transform="translate(755.4 1026.0) rotate(43) scale(1.76)"><ellipse rx="15" ry="30" fill="#5a2e1b"/><ellipse cx="-4" cy="-8" rx="4" ry="14" fill="#8a4a2c" opacity=".7"/><path d="M8-18c-3 8-3 22 0 32" stroke="#3e1f12" stroke-width="1.6" fill="none" opacity=".6"/></g><g transform="translate(523.8 753.3) rotate(-24) scale(1.81)"><ellipse rx="15" ry="30" fill="#5a2e1b"/><ellipse cx="-4" cy="-8" rx="4" ry="14" fill="#8a4a2c" opacity=".7"/><path d="M8-18c-3 8-3 22 0 32" stroke="#3e1f12" stroke-width="1.6" fill="none" opacity=".6"/></g><g transform="translate(378.5 764.4) rotate(10) scale(1.29)"><ellipse rx="15" ry="30" fill="#5a2e1b"/><ellipse cx="-4" cy="-8" rx="4" ry="14" fill="#8a4a2c" opacity=".7"/><path d="M8-18c-3 8-3 22 0 32" stroke="#3e1f12" stroke-width="1.6" fill="none" opacity=".6"/></g><g transform="translate(80.8 719.1) rotate(-52) scale(1.68)"><ellipse rx="15" ry="30" fill="#5a2e1b"/><ellipse cx="-4" cy="-8" rx="4" ry="14" fill="#8a4a2c" opacity=".7"/><path d="M8-18c-3 8-3 22 0 32" stroke="#3e1f12" stroke-width="1.6" fill="none" opacity=".6"/></g><g transform="translate(273.5 526.2) rotate(-18) scale(1.55)"><ellipse rx="15" ry="30" fill="#5a2e1b"/><ellipse cx="-4" cy="-8" rx="4" ry="14" fill="#8a4a2c" opacity=".7"/><path d="M8-18c-3 8-3 22 0 32" stroke="#3e1f12" stroke-width="1.6" fill="none" opacity=".6"/></g><g transform="translate(486.8 800.5) rotate(1) scale(1.74)"><ellipse rx="15" ry="30" fill="#5a2e1b"/><ellipse cx="-4" cy="-8" rx="4" ry="14" fill="#8a4a2c" opacity=".7"/><path d="M8-18c-3 8-3 22 0 32" stroke="#3e1f12" stroke-width="1.6" fill="none" opacity=".6"/></g><g transform="translate(417.5 730.7) rotate(-26) scale(1.30)"><ellipse rx="15" ry="30" fill="#5a2e1b"/><ellipse cx="-4" cy="-8" rx="4" ry="14" fill="#8a4a2c" opacity=".7"/><path d="M8-18c-3 8-3 22 0 32" stroke="#3e1f12" stroke-width="1.6" fill="none" opacity=".6"/></g><g transform="translate(378.1 99.8) rotate(-69) scale(1.34)"><ellipse rx="15" ry="30" fill="#5a2e1b"/><ellipse cx="-4" cy="-8" rx="4" ry="14" fill="#8a4a2c" opacity=".7"/><path d="M8-18c-3 8-3 22 0 32" stroke="#3e1f12" stroke-width="1.6" fill="none" opacity=".6"/></g><g transform="translate(258.1 238.9) rotate(32) scale(1.45)"><ellipse rx="15" ry="30" fill="#5a2e1b"/><ellipse cx="-4" cy="-8" rx="4" ry="14" fill="#8a4a2c" opacity=".7"/><path d="M8-18c-3 8-3 22 0 32" stroke="#3e1f12" stroke-width="1.6" fill="none" opacity=".6"/></g><g transform="translate(83.6 360.3) rotate(48) scale(1.39)"><ellipse rx="15" ry="30" fill="#5a2e1b"/><ellipse cx="-4" cy="-8" rx="4" ry="14" fill="#8a4a2c" opacity=".7"/><path d="M8-18c-3 8-3 22 0 32" stroke="#3e1f12" stroke-width="1.6" fill="none" opacity=".6"/></g><g transform="translate(576.5 321.6) rotate(15) scale(1.76)"><ellipse rx="15" ry="30" fill="#5a2e1b"/><ellipse cx="-4" cy="-8" rx="4" ry="14" fill="#8a4a2c" opacity=".7"/><path d="M8-18c-3 8-3 22 0 32" stroke="#3e1f12" stroke-width="1.6" fill="none" opacity=".6"/></g><g transform="translate(389.5 319.2) rotate(43) scale(1.66)"><ellipse rx="15" ry="30" fill="#5a2e1b"/><ellipse cx="-4" cy="-8" rx="4" ry="14" fill="#8a4a2c" opacity=".7"/><path d="M8-18c-3 8-3 22 0 32" stroke="#3e1f12" stroke-width="1.6" fill="none" opacity=".6"/></g><g transform="translate(516.6 763.1) rotate(22) scale(1.43)"><ellipse rx="15" ry="30" fill="#5a2e1b"/><ellipse cx="-4" cy="-8" rx="4" ry="14" fill="#8a4a2c" opacity=".7"/><path d="M8-18c-3 8-3 22 0 32" stroke="#3e1f12" stroke-width="1.6" fill="none" opacity=".6"/></g><g transform="translate(20.3 923.6) rotate(33) scale(1.61)"><ellipse rx="15" ry="30" fill="#5a2e1b"/><ellipse cx="-4" cy="-8" rx="4" ry="14" fill="#8a4a2c" opacity=".7"/><path d="M8-18c-3 8-3 22 0 32" stroke="#3e1f12" stroke-width="1.6" fill="none" opacity=".6"/></g><g transform="translate(582.2 241.9) rotate(-16) scale(1.70)"><ellipse rx="15" ry="30" fill="#5a2e1b"/><ellipse cx="-4" cy="-8" rx="4" ry="14" fill="#8a4a2c" opacity=".7"/><path d="M8-18c-3 8-3 22 0 32" stroke="#3e1f12" stroke-width="1.6" fill="none" opacity=".6"/></g><g transform="translate(480.7 276.2) rotate(34) scale(1.65)"><ellipse rx="15" ry="30" fill="#5a2e1b"/><ellipse cx="-4" cy="-8" rx="4" ry="14" fill="#8a4a2c" opacity=".7"/><path d="M8-18c-3 8-3 22 0 32" stroke="#3e1f12" stroke-width="1.6" fill="none" opacity=".6"/></g><g transform="translate(494.4 606.3) rotate(6) scale(1.34)"><ellipse rx="15" ry="30" fill="#5a2e1b"/><ellipse cx="-4" cy="-8" rx="4" ry="14" fill="#8a4a2c" opacity=".7"/><path d="M8-18c-3 8-3 22 0 32" stroke="#3e1f12" stroke-width="1.6" fill="none" opacity=".6"/></g><g transform="translate(750.5 282.3) rotate(59) scale(1.49)"><ellipse rx="15" ry="30" fill="#5a2e1b"/><ellipse cx="-4" cy="-8" rx="4" ry="14" fill="#8a4a2c" opacity=".7"/><path d="M8-18c-3 8-3 22 0 32" stroke="#3e1f12" stroke-width="1.6" fill="none" opacity=".6"/></g><g transform="translate(68.5 345.8) rotate(78) scale(1.44)"><ellipse rx="15" ry="30" fill="#5a2e1b"/><ellipse cx="-4" cy="-8" rx="4" ry="14" fill="#8a4a2c" opacity=".7"/><path d="M8-18c-3 8-3 22 0 32" stroke="#3e1f12" stroke-width="1.6" fill="none" opacity=".6"/></g><g transform="translate(588.0 673.8) rotate(-20) scale(1.32)"><ellipse rx="15" ry="30" fill="#5a2e1b"/><ellipse cx="-4" cy="-8" rx="4" ry="14" fill="#8a4a2c" opacity=".7"/><path d="M8-18c-3 8-3 22 0 32" stroke="#3e1f12" stroke-width="1.6" fill="none" opacity=".6"/></g><g transform="translate(493.1 613.7) rotate(53) scale(1.83)"><ellipse rx="15" ry="30" fill="#5a2e1b"/><ellipse cx="-4" cy="-8" rx="4" ry="14" fill="#8a4a2c" opacity=".7"/><path d="M8-18c-3 8-3 22 0 32" stroke="#3e1f12" stroke-width="1.6" fill="none" opacity=".6"/></g><g transform="translate(699.0 269.2) rotate(-51) scale(1.75)"><ellipse rx="15" ry="30" fill="#5a2e1b"/><ellipse cx="-4" cy="-8" rx="4" ry="14" fill="#8a4a2c" opacity=".7"/><path d="M8-18c-3 8-3 22 0 32" stroke="#3e1f12" stroke-width="1.6" fill="none" opacity=".6"/></g><g transform="translate(538.6 618.4) rotate(-15) scale(1.29)"><ellipse rx="15" ry="30" fill="#5a2e1b"/><ellipse cx="-4" cy="-8" rx="4" ry="14" fill="#8a4a2c" opacity=".7"/><path d="M8-18c-3 8-3 22 0 32" stroke="#3e1f12" stroke-width="1.6" fill="none" opacity=".6"/></g><g transform="translate(100.8 715.4) rotate(58) scale(1.81)"><ellipse rx="15" ry="30" fill="#5a2e1b"/><ellipse cx="-4" cy="-8" rx="4" ry="14" fill="#8a4a2c" opacity=".7"/><path d="M8-18c-3 8-3 22 0 32" stroke="#3e1f12" stroke-width="1.6" fill="none" opacity=".6"/></g><g transform="translate(799.5 901.7) rotate(21) scale(1.48)"><ellipse rx="15" ry="30" fill="#5a2e1b"/><ellipse cx="-4" cy="-8" rx="4" ry="14" fill="#8a4a2c" opacity=".7"/><path d="M8-18c-3 8-3 22 0 32" stroke="#3e1f12" stroke-width="1.6" fill="none" opacity=".6"/></g><g transform="translate(766.3 953.2) rotate(50) scale(1.46)"><ellipse rx="15" ry="30" fill="#5a2e1b"/><ellipse cx="-4" cy="-8" rx="4" ry="14" fill="#8a4a2c" opacity=".7"/><path d="M8-18c-3 8-3 22 0 32" stroke="#3e1f12" stroke-width="1.6" fill="none" opacity=".6"/></g><g transform="translate(586.1 387.7) rotate(17) scale(1.61)"><ellipse rx="15" ry="30" fill="#5a2e1b"/><ellipse cx="-4" cy="-8" rx="4" ry="14" fill="#8a4a2c" opacity=".7"/><path d="M8-18c-3 8-3 22 0 32" stroke="#3e1f12" stroke-width="1.6" fill="none" opacity=".6"/></g><g transform="translate(284.7 627.7) rotate(55) scale(1.34)"><ellipse rx="15" ry="30" fill="#5a2e1b"/><ellipse cx="-4" cy="-8" rx="4" ry="14" fill="#8a4a2c" opacity=".7"/><path d="M8-18c-3 8-3 22 0 32" stroke="#3e1f12" stroke-width="1.6" fill="none" opacity=".6"/></g><g transform="translate(145.2 307.7) rotate(72) scale(1.76)"><ellipse rx="15" ry="30" fill="#5a2e1b"/><ellipse cx="-4" cy="-8" rx="4" ry="14" fill="#8a4a2c" opacity=".7"/><path d="M8-18c-3 8-3 22 0 32" stroke="#3e1f12" stroke-width="1.6" fill="none" opacity=".6"/></g><g transform="translate(620.0 829.5) rotate(-53) scale(1.75)"><ellipse rx="15" ry="30" fill="#5a2e1b"/><ellipse cx="-4" cy="-8" rx="4" ry="14" fill="#8a4a2c" opacity=".7"/><path d="M8-18c-3 8-3 22 0 32" stroke="#3e1f12" stroke-width="1.6" fill="none" opacity=".6"/></g><g transform="translate(750.8 1007.8) rotate(50) scale(1.64)"><ellipse rx="15" ry="30" fill="#5a2e1b"/><ellipse cx="-4" cy="-8" rx="4" ry="14" fill="#8a4a2c" opacity=".7"/><path d="M8-18c-3 8-3 22 0 32" stroke="#3e1f12" stroke-width="1.6" fill="none" opacity=".6"/></g><g transform="translate(354.6 530.9) rotate(24) scale(1.80)"><ellipse rx="15" ry="30" fill="#5a2e1b"/><ellipse cx="-4" cy="-8" rx="4" ry="14" fill="#8a4a2c" opacity=".7"/><path d="M8-18c-3 8-3 22 0 32" stroke="#3e1f12" stroke-width="1.6" fill="none" opacity=".6"/></g><g transform="translate(684.8 516.6) rotate(14) scale(1.46)"><ellipse rx="15" ry="30" fill="#5a2e1b"/><ellipse cx="-4" cy="-8" rx="4" ry="14" fill="#8a4a2c" opacity=".7"/><path d="M8-18c-3 8-3 22 0 32" stroke="#3e1f12" stroke-width="1.6" fill="none" opacity=".6"/></g><g transform="translate(89.4 593.4) rotate(-62) scale(1.31)"><ellipse rx="15" ry="30" fill="#5a2e1b"/><ellipse cx="-4" cy="-8" rx="4" ry="14" fill="#8a4a2c" opacity=".7"/><path d="M8-18c-3 8-3 22 0 32" stroke="#3e1f12" stroke-width="1.6" fill="none" opacity=".6"/></g><g transform="translate(622.2 814.3) rotate(1) scale(1.70)"><ellipse rx="15" ry="30" fill="#5a2e1b"/><ellipse cx="-4" cy="-8" rx="4" ry="14" fill="#8a4a2c" opacity=".7"/><path d="M8-18c-3 8-3 22 0 32" stroke="#3e1f12" stroke-width="1.6" fill="none" opacity=".6"/></g><g transform="translate(149.7 838.7) rotate(38) scale(1.39)"><ellipse rx="15" ry="30" fill="#5a2e1b"/><ellipse cx="-4" cy="-8" rx="4" ry="14" fill="#8a4a2c" opacity=".7"/><path d="M8-18c-3 8-3 22 0 32" stroke="#3e1f12" stroke-width="1.6" fill="none" opacity=".6"/></g><g transform="translate(401.9 717.7) rotate(43) scale(1.79)"><ellipse rx="15" ry="30" fill="#5a2e1b"/><ellipse cx="-4" cy="-8" rx="4" ry="14" fill="#8a4a2c" opacity=".7"/><path d="M8-18c-3 8-3 22 0 32" stroke="#3e1f12" stroke-width="1.6" fill="none" opacity=".6"/></g><g transform="translate(95.7 360.9) rotate(61) scale(1.31)"><ellipse rx="15" ry="30" fill="#5a2e1b"/><ellipse cx="-4" cy="-8" rx="4" ry="14" fill="#8a4a2c" opacity=".7"/><path d="M8-18c-3 8-3 22 0 32" stroke="#3e1f12" stroke-width="1.6" fill="none" opacity=".6"/></g><g transform="translate(240.3 565.2) rotate(39) scale(1.58)"><ellipse rx="15" ry="30" fill="#5a2e1b"/><ellipse cx="-4" cy="-8" rx="4" ry="14" fill="#8a4a2c" opacity=".7"/><path d="M8-18c-3 8-3 22 0 32" stroke="#3e1f12" stroke-width="1.6" fill="none" opacity=".6"/></g><g transform="translate(415.9 578.4) rotate(74) scale(1.40)"><ellipse rx="15" ry="30" fill="#5a2e1b"/><ellipse cx="-4" cy="-8" rx="4" ry="14" fill="#8a4a2c" opacity=".7"/><path d="M8-18c-3 8-3 22 0 32" stroke="#3e1f12" stroke-width="1.6" fill="none" opacity=".6"/></g><g transform="translate(171.4 469.6) rotate(17) scale(1.47)"><ellipse rx="15" ry="30" fill="#5a2e1b"/><ellipse cx="-4" cy="-8" rx="4" ry="14" fill="#8a4a2c" opacity=".7"/><path d="M8-18c-3 8-3 22 0 32" stroke="#3e1f12" stroke-width="1.6" fill="none" opacity=".6"/></g><g transform="translate(272.4 831.1) rotate(-79) scale(1.57)"><ellipse rx="15" ry="30" fill="#5a2e1b"/><ellipse cx="-4" cy="-8" rx="4" ry="14" fill="#8a4a2c" opacity=".7"/><path d="M8-18c-3 8-3 22 0 32" stroke="#3e1f12" stroke-width="1.6" fill="none" opacity=".6"/></g><g transform="translate(782.7 488.6) rotate(-18) scale(1.63)"><ellipse rx="15" ry="30" fill="#5a2e1b"/><ellipse cx="-4" cy="-8" rx="4" ry="14" fill="#8a4a2c" opacity=".7"/><path d="M8-18c-3 8-3 22 0 32" stroke="#3e1f12" stroke-width="1.6" fill="none" opacity=".6"/></g><g transform="translate(341.6 137.8) rotate(-73) scale(1.45)"><ellipse rx="15" ry="30" fill="#5a2e1b"/><ellipse cx="-4" cy="-8" rx="4" ry="14" fill="#8a4a2c" opacity=".7"/><path d="M8-18c-3 8-3 22 0 32" stroke="#3e1f12" stroke-width="1.6" fill="none" opacity=".6"/></g><g transform="translate(65.8 486.0) rotate(-52) scale(1.33)"><ellipse rx="15" ry="30" fill="#5a2e1b"/><ellipse cx="-4" cy="-8" rx="4" ry="14" fill="#8a4a2c" opacity=".7"/><path d="M8-18c-3 8-3 22 0 32" stroke="#3e1f12" stroke-width="1.6" fill="none" opacity=".6"/></g><g transform="translate(707.3 891.6) rotate(-53) scale(1.31)"><ellipse rx="15" ry="30" fill="#5a2e1b"/><ellipse cx="-4" cy="-8" rx="4" ry="14" fill="#8a4a2c" opacity=".7"/><path d="M8-18c-3 8-3 22 0 32" stroke="#3e1f12" stroke-width="1.6" fill="none" opacity=".6"/></g><g transform="translate(648.0 373.8) rotate(-37) scale(1.57)"><ellipse rx="15" ry="30" fill="#5a2e1b"/><ellipse cx="-4" cy="-8" rx="4" ry="14" fill="#8a4a2c" opacity=".7"/><path d="M8-18c-3 8-3 22 0 32" stroke="#3e1f12" stroke-width="1.6" fill="none" opacity=".6"/></g><g transform="translate(552.2 353.7) rotate(78) scale(1.81)"><ellipse rx="15" ry="30" fill="#5a2e1b"/><ellipse cx="-4" cy="-8" rx="4" ry="14" fill="#8a4a2c" opacity=".7"/><path d="M8-18c-3 8-3 22 0 32" stroke="#3e1f12" stroke-width="1.6" fill="none" opacity=".6"/></g><g transform="translate(778.4 632.5) rotate(69) scale(1.44)"><ellipse rx="15" ry="30" fill="#5a2e1b"/><ellipse cx="-4" cy="-8" rx="4" ry="14" fill="#8a4a2c" opacity=".7"/><path d="M8-18c-3 8-3 22 0 32" stroke="#3e1f12" stroke-width="1.6" fill="none" opacity=".6"/></g><g transform="translate(509.3 90.2) rotate(-39) scale(1.67)"><ellipse rx="15" ry="30" fill="#5a2e1b"/><ellipse cx="-4" cy="-8" rx="4" ry="14" fill="#8a4a2c" opacity=".7"/><path d="M8-18c-3 8-3 22 0 32" stroke="#3e1f12" stroke-width="1.6" fill="none" opacity=".6"/></g><g transform="translate(341.7 793.9) rotate(-9) scale(1.32)"><ellipse rx="15" ry="30" fill="#5a2e1b"/><ellipse cx="-4" cy="-8" rx="4" ry="14" fill="#8a4a2c" opacity=".7"/><path d="M8-18c-3 8-3 22 0 32" stroke="#3e1f12" stroke-width="1.6" fill="none" opacity=".6"/></g><g transform="translate(331.8 75.4) rotate(-47) scale(1.48)"><ellipse rx="15" ry="30" fill="#5a2e1b"/><ellipse cx="-4" cy="-8" rx="4" ry="14" fill="#8a4a2c" opacity=".7"/><path d="M8-18c-3 8-3 22 0 32" stroke="#3e1f12" stroke-width="1.6" fill="none" opacity=".6"/></g><g transform="translate(452.8 545.1) rotate(-19) scale(1.38)"><ellipse rx="15" ry="30" fill="#5a2e1b"/><ellipse cx="-4" cy="-8" rx="4" ry="14" fill="#8a4a2c" opacity=".7"/><path d="M8-18c-3 8-3 22 0 32" stroke="#3e1f12" stroke-width="1.6" fill="none" opacity=".6"/></g><g transform="translate(308.5 72.9) rotate(15) scale(1.30)"><ellipse rx="15" ry="30" fill="#5a2e1b"/><ellipse cx="-4" cy="-8" rx="4" ry="14" fill="#8a4a2c" opacity=".7"/><path d="M8-18c-3 8-3 22 0 32" stroke="#3e1f12" stroke-width="1.6" fill="none" opacity=".6"/></g><g transform="translate(583.0 184.5) rotate(-53) scale(1.58)"><ellipse rx="15" ry="30" fill="#5a2e1b"/><ellipse cx="-4" cy="-8" rx="4" ry="14" fill="#8a4a2c" opacity=".7"/><path d="M8-18c-3 8-3 22 0 32" stroke="#3e1f12" stroke-width="1.6" fill="none" opacity=".6"/></g><g transform="translate(300.9 110.6) rotate(54) scale(1.54)"><ellipse rx="15" ry="30" fill="#5a2e1b"/><ellipse cx="-4" cy="-8" rx="4" ry="14" fill="#8a4a2c" opacity=".7"/><path d="M8-18c-3 8-3 22 0 32" stroke="#3e1f12" stroke-width="1.6" fill="none" opacity=".6"/></g><g transform="translate(160.9 497.2) rotate(-9) scale(1.78)"><ellipse rx="15" ry="30" fill="#5a2e1b"/><ellipse cx="-4" cy="-8" rx="4" ry="14" fill="#8a4a2c" opacity=".7"/><path d="M8-18c-3 8-3 22 0 32" stroke="#3e1f12" stroke-width="1.6" fill="none" opacity=".6"/></g><g transform="translate(511.7 276.2) rotate(54) scale(1.81)"><ellipse rx="15" ry="30" fill="#5a2e1b"/><ellipse cx="-4" cy="-8" rx="4" ry="14" fill="#8a4a2c" opacity=".7"/><path d="M8-18c-3 8-3 22 0 32" stroke="#3e1f12" stroke-width="1.6" fill="none" opacity=".6"/></g><g transform="translate(168.4 681.2) rotate(69) scale(1.82)"><ellipse rx="15" ry="30" fill="#5a2e1b"/><ellipse cx="-4" cy="-8" rx="4" ry="14" fill="#8a4a2c" opacity=".7"/><path d="M8-18c-3 8-3 22 0 32" stroke="#3e1f12" stroke-width="1.6" fill="none" opacity=".6"/></g><g transform="translate(557.5 580.7) rotate(-25) scale(1.51)"><ellipse rx="15" ry="30" fill="#5a2e1b"/><ellipse cx="-4" cy="-8" rx="4" ry="14" fill="#8a4a2c" opacity=".7"/><path d="M8-18c-3 8-3 22 0 32" stroke="#3e1f12" stroke-width="1.6" fill="none" opacity=".6"/></g><g transform="translate(468.8 736.9) rotate(-44) scale(1.71)"><ellipse rx="15" ry="30" fill="#5a2e1b"/><ellipse cx="-4" cy="-8" rx="4" ry="14" fill="#8a4a2c" opacity=".7"/><path d="M8-18c-3 8-3 22 0 32" stroke="#3e1f12" stroke-width="1.6" fill="none" opacity=".6"/></g><g transform="translate(260.8 164.3) rotate(50) scale(1.32)"><ellipse rx="15" ry="30" fill="#5a2e1b"/><ellipse cx="-4" cy="-8" rx="4" ry="14" fill="#8a4a2c" opacity=".7"/><path d="M8-18c-3 8-3 22 0 32" stroke="#3e1f12" stroke-width="1.6" fill="none" opacity=".6"/></g><g transform="translate(725.8 369.8) rotate(-4) scale(1.60)"><ellipse rx="15" ry="30" fill="#5a2e1b"/><ellipse cx="-4" cy="-8" rx="4" ry="14" fill="#8a4a2c" opacity=".7"/><path d="M8-18c-3 8-3 22 0 32" stroke="#3e1f12" stroke-width="1.6" fill="none" opacity=".6"/></g><g transform="translate(218.2 517.1) rotate(-10) scale(1.65)"><ellipse rx="15" ry="30" fill="#5a2e1b"/><ellipse cx="-4" cy="-8" rx="4" ry="14" fill="#8a4a2c" opacity=".7"/><path d="M8-18c-3 8-3 22 0 32" stroke="#3e1f12" stroke-width="1.6" fill="none" opacity=".6"/></g><g transform="translate(223.8 170.5) rotate(42) scale(1.68)"><ellipse rx="15" ry="30" fill="#5a2e1b"/><ellipse cx="-4" cy="-8" rx="4" ry="14" fill="#8a4a2c" opacity=".7"/><path d="M8-18c-3 8-3 22 0 32" stroke="#3e1f12" stroke-width="1.6" fill="none" opacity=".6"/></g><g transform="translate(161.0 939.0) rotate(29) scale(1.75)"><ellipse rx="15" ry="30" fill="#5a2e1b"/><ellipse cx="-4" cy="-8" rx="4" ry="14" fill="#8a4a2c" opacity=".7"/><path d="M8-18c-3 8-3 22 0 32" stroke="#3e1f12" stroke-width="1.6" fill="none" opacity=".6"/></g><g transform="translate(251.6 669.1) rotate(65) scale(1.59)"><ellipse rx="15" ry="30" fill="#5a2e1b"/><ellipse cx="-4" cy="-8" rx="4" ry="14" fill="#8a4a2c" opacity=".7"/><path d="M8-18c-3 8-3 22 0 32" stroke="#3e1f12" stroke-width="1.6" fill="none" opacity=".6"/></g><g transform="translate(804.6 572.8) rotate(-59) scale(1.63)"><ellipse rx="15" ry="30" fill="#5a2e1b"/><ellipse cx="-4" cy="-8" rx="4" ry="14" fill="#8a4a2c" opacity=".7"/><path d="M8-18c-3 8-3 22 0 32" stroke="#3e1f12" stroke-width="1.6" fill="none" opacity=".6"/></g><g transform="translate(32.1 432.7) rotate(-47) scale(1.54)"><ellipse rx="15" ry="30" fill="#5a2e1b"/><ellipse cx="-4" cy="-8" rx="4" ry="14" fill="#8a4a2c" opacity=".7"/><path d="M8-18c-3 8-3 22 0 32" stroke="#3e1f12" stroke-width="1.6" fill="none" opacity=".6"/></g><g transform="translate(-2.8 347.6) rotate(-70) scale(1.52)"><ellipse rx="15" ry="30" fill="#5a2e1b"/><ellipse cx="-4" cy="-8" rx="4" ry="14" fill="#8a4a2c" opacity=".7"/><path d="M8-18c-3 8-3 22 0 32" stroke="#3e1f12" stroke-width="1.6" fill="none" opacity=".6"/></g><g transform="translate(105.1 949.6) rotate(-27) scale(1.59)"><ellipse rx="15" ry="30" fill="#5a2e1b"/><ellipse cx="-4" cy="-8" rx="4" ry="14" fill="#8a4a2c" opacity=".7"/><path d="M8-18c-3 8-3 22 0 32" stroke="#3e1f12" stroke-width="1.6" fill="none" opacity=".6"/></g><g transform="translate(376.9 176.9) rotate(31) scale(1.65)"><ellipse rx="15" ry="30" fill="#5a2e1b"/><ellipse cx="-4" cy="-8" rx="4" ry="14" fill="#8a4a2c" opacity=".7"/><path d="M8-18c-3 8-3 22 0 32" stroke="#3e1f12" stroke-width="1.6" fill="none" opacity=".6"/></g><g transform="translate(438.2 199.7) rotate(-5) scale(1.29)"><ellipse rx="15" ry="30" fill="#5a2e1b"/><ellipse cx="-4" cy="-8" rx="4" ry="14" fill="#8a4a2c" opacity=".7"/><path d="M8-18c-3 8-3 22 0 32" stroke="#3e1f12" stroke-width="1.6" fill="none" opacity=".6"/></g><g transform="translate(116.5 678.7) rotate(-12) scale(1.50)"><ellipse rx="15" ry="30" fill="#5a2e1b"/><ellipse cx="-4" cy="-8" rx="4" ry="14" fill="#8a4a2c" opacity=".7"/><path d="M8-18c-3 8-3 22 0 32" stroke="#3e1f12" stroke-width="1.6" fill="none" opacity=".6"/></g><g transform="translate(514.6 156.2) rotate(16) scale(1.68)"><ellipse rx="15" ry="30" fill="#5a2e1b"/><ellipse cx="-4" cy="-8" rx="4" ry="14" fill="#8a4a2c" opacity=".7"/><path d="M8-18c-3 8-3 22 0 32" stroke="#3e1f12" stroke-width="1.6" fill="none" opacity=".6"/></g><g transform="translate(415.2 725.3) rotate(-29) scale(1.36)"><ellipse rx="15" ry="30" fill="#5a2e1b"/><ellipse cx="-4" cy="-8" rx="4" ry="14" fill="#8a4a2c" opacity=".7"/><path d="M8-18c-3 8-3 22 0 32" stroke="#3e1f12" stroke-width="1.6" fill="none" opacity=".6"/></g><g transform="translate(655.8 484.6) rotate(16) scale(1.70)"><ellipse rx="15" ry="30" fill="#5a2e1b"/><ellipse cx="-4" cy="-8" rx="4" ry="14" fill="#8a4a2c" opacity=".7"/><path d="M8-18c-3 8-3 22 0 32" stroke="#3e1f12" stroke-width="1.6" fill="none" opacity=".6"/></g><g transform="translate(844.7 647.8) rotate(80) scale(1.30)"><ellipse rx="15" ry="30" fill="#5a2e1b"/><ellipse cx="-4" cy="-8" rx="4" ry="14" fill="#8a4a2c" opacity=".7"/><path d="M8-18c-3 8-3 22 0 32" stroke="#3e1f12" stroke-width="1.6" fill="none" opacity=".6"/></g><g transform="translate(396.8 324.4) rotate(-5) scale(1.50)"><ellipse rx="15" ry="30" fill="#5a2e1b"/><ellipse cx="-4" cy="-8" rx="4" ry="14" fill="#8a4a2c" opacity=".7"/><path d="M8-18c-3 8-3 22 0 32" stroke="#3e1f12" stroke-width="1.6" fill="none" opacity=".6"/></g><g transform="translate(21.6 841.7) rotate(16) scale(1.39)"><ellipse rx="15" ry="30" fill="#5a2e1b"/><ellipse cx="-4" cy="-8" rx="4" ry="14" fill="#8a4a2c" opacity=".7"/><path d="M8-18c-3 8-3 22 0 32" stroke="#3e1f12" stroke-width="1.6" fill="none" opacity=".6"/></g><g transform="translate(781.3 912.2) rotate(-16) scale(1.77)"><ellipse rx="15" ry="30" fill="#5a2e1b"/><ellipse cx="-4" cy="-8" rx="4" ry="14" fill="#8a4a2c" opacity=".7"/><path d="M8-18c-3 8-3 22 0 32" stroke="#3e1f12" stroke-width="1.6" fill="none" opacity=".6"/></g><g transform="translate(677.3 222.4) rotate(-71) scale(1.56)"><ellipse rx="15" ry="30" fill="#5a2e1b"/><ellipse cx="-4" cy="-8" rx="4" ry="14" fill="#8a4a2c" opacity=".7"/><path d="M8-18c-3 8-3 22 0 32" stroke="#3e1f12" stroke-width="1.6" fill="none" opacity=".6"/></g><g transform="translate(386.3 198.7) rotate(-60) scale(1.80)"><ellipse rx="15" ry="30" fill="#5a2e1b"/><ellipse cx="-4" cy="-8" rx="4" ry="14" fill="#8a4a2c" opacity=".7"/><path d="M8-18c-3 8-3 22 0 32" stroke="#3e1f12" stroke-width="1.6" fill="none" opacity=".6"/></g><g transform="translate(598.6 398.4) rotate(-13) scale(1.80)"><ellipse rx="15" ry="30" fill="#5a2e1b"/><ellipse cx="-4" cy="-8" rx="4" ry="14" fill="#8a4a2c" opacity=".7"/><path d="M8-18c-3 8-3 22 0 32" stroke="#3e1f12" stroke-width="1.6" fill="none" opacity=".6"/></g><g transform="translate(116.7 280.4) rotate(30) scale(1.47)"><ellipse rx="15" ry="30" fill="#5a2e1b"/><ellipse cx="-4" cy="-8" rx="4" ry="14" fill="#8a4a2c" opacity=".7"/><path d="M8-18c-3 8-3 22 0 32" stroke="#3e1f12" stroke-width="1.6" fill="none" opacity=".6"/></g><g transform="translate(61.9 733.9) rotate(-73) scale(1.74)"><ellipse rx="15" ry="30" fill="#5a2e1b"/><ellipse cx="-4" cy="-8" rx="4" ry="14" fill="#8a4a2c" opacity=".7"/><path d="M8-18c-3 8-3 22 0 32" stroke="#3e1f12" stroke-width="1.6" fill="none" opacity=".6"/></g><g transform="translate(718.0 605.3) rotate(58) scale(1.34)"><ellipse rx="15" ry="30" fill="#5a2e1b"/><ellipse cx="-4" cy="-8" rx="4" ry="14" fill="#8a4a2c" opacity=".7"/><path d="M8-18c-3 8-3 22 0 32" stroke="#3e1f12" stroke-width="1.6" fill="none" opacity=".6"/></g><g transform="translate(444.5 631.1) rotate(58) scale(1.62)"><ellipse rx="15" ry="30" fill="#5a2e1b"/><ellipse cx="-4" cy="-8" rx="4" ry="14" fill="#8a4a2c" opacity=".7"/><path d="M8-18c-3 8-3 22 0 32" stroke="#3e1f12" stroke-width="1.6" fill="none" opacity=".6"/></g><g transform="translate(521.3 221.6) rotate(70) scale(1.39)"><ellipse rx="15" ry="30" fill="#5a2e1b"/><ellipse cx="-4" cy="-8" rx="4" ry="14" fill="#8a4a2c" opacity=".7"/><path d="M8-18c-3 8-3 22 0 32" stroke="#3e1f12" stroke-width="1.6" fill="none" opacity=".6"/></g><g transform="translate(820.6 697.3) rotate(-14) scale(1.61)"><ellipse rx="15" ry="30" fill="#5a2e1b"/><ellipse cx="-4" cy="-8" rx="4" ry="14" fill="#8a4a2c" opacity=".7"/><path d="M8-18c-3 8-3 22 0 32" stroke="#3e1f12" stroke-width="1.6" fill="none" opacity=".6"/></g><g transform="translate(627.0 885.5) rotate(-7) scale(1.30)"><ellipse rx="15" ry="30" fill="#5a2e1b"/><ellipse cx="-4" cy="-8" rx="4" ry="14" fill="#8a4a2c" opacity=".7"/><path d="M8-18c-3 8-3 22 0 32" stroke="#3e1f12" stroke-width="1.6" fill="none" opacity=".6"/></g><g transform="translate(212.5 325.6) rotate(12) scale(1.79)"><ellipse rx="15" ry="30" fill="#5a2e1b"/><ellipse cx="-4" cy="-8" rx="4" ry="14" fill="#8a4a2c" opacity=".7"/><path d="M8-18c-3 8-3 22 0 32" stroke="#3e1f12" stroke-width="1.6" fill="none" opacity=".6"/></g><g transform="translate(19.8 1034.1) rotate(-7) scale(1.81)"><ellipse rx="15" ry="30" fill="#5a2e1b"/><ellipse cx="-4" cy="-8" rx="4" ry="14" fill="#8a4a2c" opacity=".7"/><path d="M8-18c-3 8-3 22 0 32" stroke="#3e1f12" stroke-width="1.6" fill="none" opacity=".6"/></g></svg>